SplineFontDB: 3.2
FontName: italic
FullName: Jet Impulse Italic
FamilyName: Jet Impulse
Weight: Book
Copyright: 
Version: 1.0
DefaultBaseFilename: Jet Impulse
ItalicAngle: 0
UnderlinePosition: 77
UnderlineWidth: 51
Ascent: 819
Descent: 205
InvalidEm: 0
sfntRevision: 0x00010000
LayerCount: 2
Layer: 0 1 "Sfondo" 1
Layer: 1 1 "Fore" 0
XUID: [1021 394 1952875658 27451]
StyleMap: 0x0001
FSType: 4
OS2Version: 2
OS2_WeightWidthSlopeOnly: 0
OS2_UseTypoMetrics: 0
CreationTime: 1768523932
ModificationTime: 1770273978
PfmFamily: 81
TTFWeight: 400
TTFWidth: 5
LineGap: 0
VLineGap: 90
Panose: 0 0 4 0 0 0 0 0 0 0
OS2TypoAscent: 576
OS2TypoAOffset: 1
OS2TypoDescent: -64
OS2TypoDOffset: 1
OS2TypoLinegap: 0
OS2WinAscent: 704
OS2WinAOffset: 1
OS2WinDescent: 64
OS2WinDOffset: 1
HheadAscent: 704
HheadAOffset: 1
HheadDescent: -64
HheadDOffset: 1
OS2SubXSize: 512
OS2SubYSize: 512
OS2SubXOff: 0
OS2SubYOff: -32
OS2SupXSize: 512
OS2SupYSize: 512
OS2SupXOff: 0
OS2SupYOff: 512
OS2StrikeYSize: 51
OS2StrikeYPos: 204
OS2CapHeight: 576
OS2XHeight: 384
OS2Vendor: 'FSTR'
OS2CodePages: 00000193.00000000
OS2UnicodeRanges: 00000003.00000000.00000000.00000000
MarkAttachClasses: 1
DEI: 91125
LangName: 1033
Encoding: UnicodeBmp
UnicodeInterp: none
NameList: AGL For New Fonts
DisplaySize: -48
AntiAlias: 1
FitToEm: 0
WinInfo: 20 20 4
BeginPrivate: 0
EndPrivate
TeXData: 1 0 0 410624 205312 136868 488448 1048576 136868 783286 444596 497025 792723 393216 433062 380633 303038 157286 324010 404750 52429 2506097 1059062 262144
BeginChars: 65536 69

StartChar: ,
Encoding: 44 44 0
Width: 165
VWidth: 1000
Flags: W
LayerCount: 2
Fore
SplineSet
114.829101562 56.63671875 m 0,0,1
 102.860351562 -11.2451171875 102.860351562 -11.2451171875 85.5361328125 -44.375 c 128,-1,2
 68.2109375 -77.505859375 68.2109375 -77.505859375 39.4052734375 -89.9462890625 c 128,-1,3
 10.599609375 -102.387695312 10.599609375 -102.387695312 -44.0537109375 -102.387695312 c 1,4,5
 -40.1728515625 -80.3759765625 -40.1728515625 -80.3759765625 -30.4375 -71.0263671875 c 128,-1,6
 -20.703125 -61.67578125 -20.703125 -61.67578125 -8.9306640625 -60.365234375 c 128,-1,7
 2.83984375 -59.0537109375 2.83984375 -59.0537109375 14.8193359375 -56.5654296875 c 128,-1,8
 26.798828125 -54.076171875 26.798828125 -54.076171875 37.43359375 -39.623046875 c 128,-1,9
 48.0673828125 -25.1708984375 48.0673828125 -25.1708984375 53.263671875 4.298828125 c 1,10,11
 31.7734375 4.298828125 31.7734375 4.298828125 18.998046875 19.31640625 c 128,-1,12
 6.2216796875 34.3349609375 6.2216796875 34.3349609375 10.154296875 56.63671875 c 0,13,14
 13.8818359375 77.7724609375 13.8818359375 77.7724609375 32.232421875 93.373046875 c 128,-1,15
 50.5849609375 108.973632812 50.5849609375 108.973632812 71.720703125 108.973632812 c 0,16,17
 94.0224609375 108.973632812 94.0224609375 108.973632812 106.3203125 93.5498046875 c 128,-1,18
 118.618164062 78.1259765625 118.618164062 78.1259765625 114.829101562 56.63671875 c 0,0,1
EndSplineSet
EndChar

StartChar: -
Encoding: 45 45 1
Width: 437
VWidth: 1000
Flags: W
LayerCount: 2
Fore
SplineSet
91.3759765625 217.85546875 m 2,0,1
 77.3720703125 217.85546875 77.3720703125 217.85546875 70.603515625 218.33984375 c 128,-1,2
 63.8349609375 218.82421875 63.8349609375 218.82421875 55.32421875 221.094726562 c 128,-1,3
 46.8125 223.366210938 46.8125 223.366210938 44.109375 229.09765625 c 128,-1,4
 41.4072265625 234.830078125 41.4072265625 234.830078125 43.0830078125 244.336914062 c 128,-1,5
 44.759765625 253.84375 44.759765625 253.84375 49.4833984375 259.576171875 c 128,-1,6
 54.2080078125 265.307617188 54.2080078125 265.307617188 63.5205078125 267.579101562 c 128,-1,7
 72.83203125 269.849609375 72.83203125 269.849609375 79.771484375 270.333984375 c 128,-1,8
 86.7109375 270.818359375 86.7109375 270.818359375 100.71484375 270.818359375 c 2,9,-1
 369.600585938 270.818359375 l 2,10,11
 383.60546875 270.818359375 383.60546875 270.818359375 390.373046875 270.333984375 c 128,-1,12
 397.141601562 269.849609375 397.141601562 269.849609375 405.653320312 267.579101562 c 128,-1,13
 414.1640625 265.307617188 414.1640625 265.307617188 416.8671875 259.576171875 c 128,-1,14
 419.569335938 253.84375 419.569335938 253.84375 417.892578125 244.336914062 c 128,-1,15
 416.216796875 234.830078125 416.216796875 234.830078125 411.493164062 229.09765625 c 128,-1,16
 406.768554688 223.366210938 406.768554688 223.366210938 397.45703125 221.094726562 c 128,-1,17
 388.14453125 218.82421875 388.14453125 218.82421875 381.205078125 218.33984375 c 128,-1,18
 374.266601562 217.85546875 374.266601562 217.85546875 360.26171875 217.85546875 c 2,19,-1
 91.3759765625 217.85546875 l 2,0,1
EndSplineSet
EndChar

StartChar: .
Encoding: 46 46 2
Width: 165
VWidth: 1000
Flags: W
LayerCount: 2
Fore
SplineSet
52.8642578125 3.841796875 m 0,0,1
 31.7890625 3.841796875 31.7890625 3.841796875 18.9755859375 19.3974609375 c 128,-1,2
 6.1630859375 34.953125 6.1630859375 34.953125 9.87890625 56.0283203125 c 0,3,4
 13.8330078125 78.451171875 13.8330078125 78.451171875 32.1123046875 94.3369140625 c 128,-1,5
 50.392578125 110.22265625 50.392578125 110.22265625 71.6220703125 110.22265625 c 0,6,7
 94.009765625 110.22265625 94.009765625 110.22265625 106.139648438 94.517578125 c 128,-1,8
 118.26953125 78.8125 118.26953125 78.8125 114.251953125 56.0283203125 c 0,9,10
 110.473632812 34.6005859375 110.473632812 34.6005859375 92.787109375 19.220703125 c 128,-1,11
 75.1015625 3.841796875 75.1015625 3.841796875 52.8642578125 3.841796875 c 0,0,1
EndSplineSet
EndChar

StartChar: 0
Encoding: 48 48 3
Width: 595
VWidth: 1000
Flags: W
LayerCount: 2
Fore
SplineSet
322.013671875 3.6376953125 m 2,0,-1
 214.2109375 3.6376953125 l 2,1,2
 172.397460938 3.6376953125 172.397460938 3.6376953125 137.8125 14.7041015625 c 128,-1,3
 103.227539062 25.771484375 103.227539062 25.771484375 76.123046875 49.0146484375 c 128,-1,4
 49.017578125 72.2578125 49.017578125 72.2578125 38.2158203125 113.861328125 c 128,-1,5
 27.4130859375 155.465820312 27.4130859375 155.465820312 37.2236328125 211.10546875 c 2,6,-1
 75.9580078125 430.778320312 l 2,7,8
 86.15234375 488.595703125 86.15234375 488.595703125 111.837890625 531.53125 c 128,-1,9
 137.522460938 574.466796875 137.522460938 574.466796875 172.987304688 598.2265625 c 128,-1,10
 208.452148438 621.986328125 208.452148438 621.986328125 246.840820312 633.166992188 c 128,-1,11
 285.229492188 644.34765625 285.229492188 644.34765625 327.185546875 644.34765625 c 2,12,-1
 434.98828125 644.34765625 l 2,13,14
 476.944335938 644.34765625 476.944335938 644.34765625 511.389648438 633.166992188 c 128,-1,15
 545.834960938 621.986328125 545.834960938 621.986328125 572.920898438 598.2265625 c 128,-1,16
 600.006835938 574.466796875 600.006835938 574.466796875 610.551757812 531.53125 c 128,-1,17
 621.094726562 488.595703125 621.094726562 488.595703125 610.900390625 430.778320312 c 2,18,-1
 573.2421875 217.208007812 l 2,19,20
 563.046875 159.390625 563.046875 159.390625 537.362304688 116.455078125 c 128,-1,21
 511.67578125 73.5185546875 511.67578125 73.5185546875 476.2109375 49.7587890625 c 128,-1,22
 440.74609375 25.9990234375 440.74609375 25.9990234375 402.358398438 14.818359375 c 128,-1,23
 363.969726562 3.6376953125 363.969726562 3.6376953125 322.013671875 3.6376953125 c 2,0,-1
89.1591796875 148.051757812 m 1,24,-1
 548.189453125 536.545898438 l 1,25,26
 518.209960938 591.463867188 518.209960938 591.463867188 425.663085938 591.463867188 c 2,27,-1
 317.860351562 591.463867188 l 2,28,29
 238.934570312 591.463867188 238.934570312 591.463867188 191.05078125 551.741210938 c 128,-1,30
 143.166015625 512.017578125 143.166015625 512.017578125 129.91796875 436.879882812 c 2,31,-1
 91.18359375 217.208007812 l 2,32,33
 84.9658203125 181.948242188 84.9658203125 181.948242188 89.1591796875 148.051757812 c 1,24,-1
101.008789062 111.439453125 m 1,34,35
 130.98828125 56.521484375 130.98828125 56.521484375 223.53515625 56.521484375 c 2,36,-1
 331.337890625 56.521484375 l 2,37,38
 410.6640625 56.521484375 410.6640625 56.521484375 458.517578125 97.201171875 c 128,-1,39
 506.370117188 137.881835938 506.370117188 137.881835938 520.357421875 217.208007812 c 2,40,-1
 558.015625 430.778320312 l 2,41,42
 564.232421875 466.037109375 564.232421875 466.037109375 560.0390625 499.93359375 c 1,43,-1
 101.008789062 111.439453125 l 1,34,35
EndSplineSet
EndChar

StartChar: 1
Encoding: 49 49 4
Width: 221
VWidth: 1000
Flags: W
LayerCount: 2
Fore
SplineSet
113.616210938 644.34765625 m 1,0,-1
 274.301757812 644.34765625 l 1,1,-1
 161.327148438 3.6376953125 l 1,2,-1
 108.443359375 3.6376953125 l 1,3,-1
 212.092773438 591.463867188 l 1,4,-1
 104.291015625 591.463867188 l 1,5,-1
 113.616210938 644.34765625 l 1,0,-1
EndSplineSet
EndChar

StartChar: 2
Encoding: 50 50 5
Width: 543
VWidth: 1000
Flags: W
LayerCount: 2
Fore
SplineSet
104.415039062 592.16796875 m 1,0,-1
 426.262695312 592.16796875 l 2,1,2
 456.28515625 592.16796875 456.28515625 592.16796875 475.622070312 579.888671875 c 128,-1,3
 494.958984375 567.610351562 494.958984375 567.610351562 502.466796875 552.430664062 c 128,-1,4
 509.973632812 537.25 509.973632812 537.25 511.30078125 513.108398438 c 128,-1,5
 512.626953125 488.965820312 512.626953125 488.965820312 511.0859375 476.360351562 c 128,-1,6
 509.543945312 463.755859375 509.543945312 463.755859375 506.326171875 445.50390625 c 0,7,8
 503.366210938 428.71875 503.366210938 428.71875 501.025390625 419.577148438 c 128,-1,9
 498.685546875 410.434570312 498.685546875 410.434570312 490.602539062 395.458007812 c 128,-1,10
 482.521484375 380.482421875 482.521484375 380.482421875 470.6953125 372.513671875 c 128,-1,11
 458.869140625 364.544921875 458.869140625 364.544921875 436.575195312 358.172851562 c 128,-1,12
 414.282226562 351.80078125 414.282226562 351.80078125 383.879882812 351.80078125 c 2,13,-1
 222.956054688 351.80078125 l 2,14,15
 200.010742188 351.80078125 200.010742188 351.80078125 173.853515625 345.5625 c 128,-1,16
 147.696289062 339.32421875 147.696289062 339.32421875 118.505859375 325.479492188 c 128,-1,17
 89.314453125 311.634765625 89.314453125 311.634765625 67.1708984375 283.497070312 c 128,-1,18
 45.02734375 255.360351562 45.02734375 255.360351562 38.326171875 217.358398438 c 2,19,-1
 0.6123046875 3.47265625 l 1,20,-1
 375.421875 3.47265625 l 2,21,22
 400.809570312 3.47265625 400.809570312 3.47265625 421.220703125 10.619140625 c 128,-1,23
 441.6328125 17.7666015625 441.6328125 17.7666015625 453.715820312 26.2021484375 c 128,-1,24
 465.798828125 34.6376953125 465.798828125 34.6376953125 492.721679688 56.4345703125 c 1,25,-1
 64.9501953125 56.4345703125 l 1,26,-1
 93.3251953125 217.358398438 l 2,27,28
 97.595703125 241.576171875 97.595703125 241.576171875 122.584960938 260.927734375 c 128,-1,29
 147.57421875 280.279296875 147.57421875 280.279296875 172.569335938 288.540039062 c 128,-1,30
 197.565429688 296.801757812 197.565429688 296.801757812 213.2578125 296.801757812 c 2,31,-1
 374.181640625 296.801757812 l 2,32,33
 457.927734375 296.801757812 457.927734375 296.801757812 501.651367188 325.92578125 c 128,-1,34
 545.375 355.048828125 545.375 355.048828125 558.810546875 431.244140625 c 2,35,-1
 568.149414062 484.20703125 l 2,36,37
 574.872070312 522.333984375 574.872070312 522.333984375 563.067382812 554.50390625 c 128,-1,38
 551.262695312 586.674804688 551.262695312 586.674804688 528.724609375 605.547851562 c 128,-1,39
 506.1875 624.419921875 506.1875 624.419921875 481.482421875 634.775390625 c 128,-1,40
 456.77734375 645.130859375 456.77734375 645.130859375 435.6015625 645.130859375 c 2,41,-1
 221.71484375 645.130859375 l 2,42,43
 196.327148438 645.130859375 196.327148438 645.130859375 175.916015625 637.983398438 c 128,-1,44
 155.50390625 630.836914062 155.50390625 630.836914062 143.420898438 622.401367188 c 128,-1,45
 131.338867188 613.965820312 131.338867188 613.965820312 104.415039062 592.16796875 c 1,0,-1
EndSplineSet
EndChar

StartChar: 3
Encoding: 51 51 6
Width: 543
VWidth: 1000
Flags: W
LayerCount: 2
Fore
SplineSet
491.826171875 351.717773438 m 1,0,-1
 62.017578125 351.717773438 l 1,1,-1
 52.3193359375 296.71875 l 1,2,-1
 482.127929688 296.71875 l 1,3,-1
 458.78125 164.3125 l 2,4,5
 456.525390625 151.520507812 456.525390625 151.520507812 454.224609375 142.377929688 c 128,-1,6
 451.921875 133.236328125 451.921875 133.236328125 443.075195312 115.408203125 c 128,-1,7
 434.227539062 97.5810546875 434.227539062 97.5810546875 421.860351562 86.189453125 c 128,-1,8
 409.493164062 74.798828125 409.493164062 74.798828125 385.920898438 65.5751953125 c 128,-1,9
 362.349609375 56.3515625 362.349609375 56.3515625 331.783203125 56.3515625 c 2,10,-1
 9.9365234375 56.3515625 l 1,11,-1
 0.59765625 3.388671875 l 1,12,-1
 322.444335938 3.388671875 l 2,13,14
 483.368164062 3.388671875 483.368164062 3.388671875 511.743164062 164.3125 c 2,15,-1
 558.795898438 431.161132812 l 2,16,17
 572.803710938 510.604492188 572.803710938 510.604492188 517.436523438 577.826171875 c 128,-1,18
 462.067382812 645.046875 462.067382812 645.046875 382.624023438 645.046875 c 2,19,-1
 113.739257812 645.046875 l 1,20,-1
 104.400390625 592.084960938 l 1,21,-1
 373.28515625 592.084960938 l 2,22,23
 410.70703125 592.084960938 410.70703125 592.084960938 439.6484375 574.586914062 c 128,-1,24
 468.588867188 557.088867188 468.588867188 557.088867188 483.131835938 531.28515625 c 128,-1,25
 497.674804688 505.481445312 497.674804688 505.481445312 503.610351562 478.84765625 c 128,-1,26
 509.545898438 452.212890625 509.545898438 452.212890625 505.833984375 431.161132812 c 2,27,-1
 491.826171875 351.717773438 l 1,0,-1
EndSplineSet
EndChar

StartChar: 4
Encoding: 52 52 7
Width: 544
VWidth: 1000
Flags: W
LayerCount: 2
Fore
SplineSet
110.19140625 325.009765625 m 2,0,-1
 166.5 644.34765625 l 1,1,-1
 113.616210938 644.34765625 l 1,2,-1
 57.3076171875 325.009765625 l 2,3,4
 50.044921875 283.821289062 50.044921875 283.821289062 77.4794921875 250.514648438 c 128,-1,5
 104.913085938 217.208007812 104.913085938 217.208007812 146.1015625 217.208007812 c 2,6,-1
 467.473632812 217.208007812 l 1,7,-1
 429.815429688 3.6376953125 l 1,8,-1
 482.69921875 3.6376953125 l 1,9,-1
 595.673828125 644.34765625 l 1,10,-1
 542.790039062 644.34765625 l 1,11,-1
 476.797851562 270.091796875 l 1,12,-1
 155.42578125 270.091796875 l 2,13,14
 135.250976562 270.091796875 135.250976562 270.091796875 120.868164062 287.040039062 c 128,-1,15
 106.485351562 303.98828125 106.485351562 303.98828125 110.19140625 325.009765625 c 2,0,-1
EndSplineSet
EndChar

StartChar: 5
Encoding: 53 53 8
Width: 543
VWidth: 1000
Flags: W
LayerCount: 2
Fore
SplineSet
159.46875 592.469726562 m 1,0,-1
 587.240234375 592.469726562 l 1,1,-1
 596.578125 645.431640625 l 1,2,-1
 113.806640625 645.431640625 l 1,3,-1
 66.7548828125 378.583984375 l 1,4,-1
 388.602539062 378.583984375 l 2,5,6
 428.666015625 378.583984375 428.666015625 378.583984375 456.703125 345.05859375 c 128,-1,7
 484.741210938 311.534179688 484.741210938 311.534179688 477.52734375 270.622070312 c 2,8,-1
 458.850585938 164.697265625 l 2,9,10
 451.845703125 124.975585938 451.845703125 124.975585938 411.709960938 90.8564453125 c 128,-1,11
 371.573242188 56.736328125 371.573242188 56.736328125 331.8515625 56.736328125 c 2,12,-1
 10.00390625 56.736328125 l 1,13,14
 29.2412109375 34.9384765625 29.2412109375 34.9384765625 38.3486328125 26.5029296875 c 128,-1,15
 47.4560546875 18.068359375 47.4560546875 18.068359375 65.3486328125 10.9208984375 c 128,-1,16
 83.2392578125 3.7734375 83.2392578125 3.7734375 108.626953125 3.7734375 c 2,17,-1
 322.512695312 3.7734375 l 2,18,19
 343.688476562 3.7734375 343.688476562 3.7734375 372.045898438 14.12890625 c 128,-1,20
 400.403320312 24.484375 400.403320312 24.484375 429.595703125 43.3564453125 c 128,-1,21
 458.790039062 62.2294921875 458.790039062 62.2294921875 481.939453125 94.400390625 c 128,-1,22
 505.088867188 126.5703125 505.088867188 126.5703125 511.8125 164.697265625 c 2,23,-1
 530.489257812 270.622070312 l 2,24,25
 537.211914062 308.749023438 537.211914062 308.749023438 525.407226562 340.919921875 c 128,-1,26
 513.603515625 373.08984375 513.603515625 373.08984375 491.064453125 391.962890625 c 128,-1,27
 468.52734375 410.834960938 468.52734375 410.834960938 443.822265625 421.190429688 c 128,-1,28
 419.116210938 431.545898438 419.116210938 431.545898438 397.940429688 431.545898438 c 2,29,-1
 131.092773438 431.545898438 l 1,30,-1
 159.46875 592.469726562 l 1,0,-1
EndSplineSet
EndChar

StartChar: 6
Encoding: 54 54 9
Width: 543
VWidth: 1000
Flags: W
LayerCount: 2
Fore
SplineSet
218.362304688 325.750976562 m 2,0,1
 178.640625 325.750976562 178.640625 325.750976562 138.505859375 291.630859375 c 128,-1,2
 98.369140625 257.51171875 98.369140625 257.51171875 91.365234375 217.790039062 c 2,3,-1
 82.0263671875 164.827148438 l 2,4,5
 75.0224609375 125.10546875 75.0224609375 125.10546875 103.125976562 90.986328125 c 128,-1,6
 131.229492188 56.8662109375 131.229492188 56.8662109375 170.951171875 56.8662109375 c 2,7,-1
 331.875 56.8662109375 l 2,8,9
 371.596679688 56.8662109375 371.596679688 56.8662109375 411.732421875 90.986328125 c 128,-1,10
 451.869140625 125.10546875 451.869140625 125.10546875 458.873046875 164.827148438 c 2,11,-1
 468.211914062 217.790039062 l 2,12,13
 475.215820312 257.51171875 475.215820312 257.51171875 447.112304688 291.630859375 c 128,-1,14
 419.0078125 325.750976562 419.0078125 325.750976562 379.286132812 325.750976562 c 2,15,-1
 218.362304688 325.750976562 l 2,0,1
388.625 378.713867188 m 2,16,17
 409.80078125 378.713867188 409.80078125 378.713867188 434.505859375 368.358398438 c 128,-1,18
 459.211914062 358.002929688 459.211914062 358.002929688 481.749023438 339.130859375 c 128,-1,19
 504.287109375 320.2578125 504.287109375 320.2578125 516.091796875 288.086914062 c 128,-1,20
 527.896484375 255.916992188 527.896484375 255.916992188 521.173828125 217.790039062 c 2,21,-1
 511.834960938 164.827148438 l 2,22,23
 505.112304688 126.700195312 505.112304688 126.700195312 481.961914062 94.5302734375 c 128,-1,24
 458.813476562 62.359375 458.813476562 62.359375 429.619140625 43.4873046875 c 128,-1,25
 400.42578125 24.615234375 400.42578125 24.615234375 372.069335938 14.259765625 c 128,-1,26
 343.711914062 3.904296875 343.711914062 3.904296875 322.536132812 3.904296875 c 2,27,-1
 161.612304688 3.904296875 l 2,28,29
 140.436523438 3.904296875 140.436523438 3.904296875 115.731445312 14.259765625 c 128,-1,30
 91.025390625 24.615234375 91.025390625 24.615234375 68.48828125 43.4873046875 c 128,-1,31
 45.951171875 62.359375 45.951171875 62.359375 34.1455078125 94.5302734375 c 128,-1,32
 22.3408203125 126.700195312 22.3408203125 126.700195312 29.0634765625 164.827148438 c 2,33,-1
 76.1162109375 431.67578125 l 2,34,35
 86.326171875 489.579101562 86.326171875 489.579101562 112.049804688 532.578125 c 128,-1,36
 137.7734375 575.577148438 137.7734375 575.577148438 173.290039062 599.372070312 c 128,-1,37
 208.806640625 623.16796875 208.806640625 623.16796875 247.252929688 634.364257812 c 128,-1,38
 285.698242188 645.561523438 285.698242188 645.561523438 327.716796875 645.561523438 c 2,39,-1
 596.6015625 645.561523438 l 1,40,-1
 587.262695312 592.599609375 l 1,41,-1
 318.377929688 592.599609375 l 2,42,43
 238.934570312 592.599609375 238.934570312 592.599609375 191.010742188 551.859375 c 128,-1,44
 143.086914062 511.119140625 143.086914062 511.119140625 129.079101562 431.67578125 c 2,45,-1
 119.740234375 378.713867188 l 1,46,-1
 388.625 378.713867188 l 2,16,17
EndSplineSet
EndChar

StartChar: 7
Encoding: 55 55 10
Width: 542
VWidth: 1000
Flags: W
LayerCount: 2
Fore
SplineSet
474.118164062 563.206054688 m 1,0,-1
 479.146484375 591.724609375 l 1,1,-1
 104.336914062 591.724609375 l 1,2,-1
 113.67578125 644.686523438 l 1,3,-1
 541.447265625 644.686523438 l 1,4,-1
 522.411132812 536.725585938 l 1,5,6
 465.1328125 510.86328125 465.1328125 510.86328125 399.948242188 424.29296875 c 128,-1,7
 334.763671875 337.72265625 334.763671875 337.72265625 283.825195312 222.743164062 c 128,-1,8
 232.887695312 107.763671875 232.887695312 107.763671875 214.419921875 3.0283203125 c 1,9,-1
 161.458007812 3.0283203125 l 1,10,11
 180.03125 108.361328125 180.03125 108.361328125 231.94140625 229.4609375 c 128,-1,12
 283.852539062 350.560546875 283.852539062 350.560546875 350.576171875 444.056640625 c 128,-1,13
 417.301757812 537.552734375 417.301757812 537.552734375 474.118164062 563.206054688 c 1,0,-1
EndSplineSet
EndChar

StartChar: 8
Encoding: 56 56 11
Width: 543
VWidth: 1000
Flags: W
LayerCount: 2
Fore
SplineSet
265.41796875 592.6171875 m 2,0,1
 225.696289062 592.6171875 225.696289062 592.6171875 185.560546875 558.497070312 c 128,-1,2
 145.423828125 524.376953125 145.423828125 524.376953125 138.419921875 484.655273438 c 2,3,-1
 129.081054688 431.693359375 l 2,4,5
 122.485351562 394.288085938 122.485351562 394.288085938 151.1171875 373.26953125 c 128,-1,6
 179.748046875 352.25 179.748046875 352.25 223.03515625 352.25 c 2,7,-1
 383.958984375 352.25 l 2,8,9
 427.245117188 352.25 427.245117188 352.25 463.2890625 373.26953125 c 128,-1,10
 499.33203125 394.288085938 499.33203125 394.288085938 505.927734375 431.693359375 c 2,11,-1
 515.266601562 484.655273438 l 2,12,13
 522.270507812 524.376953125 522.270507812 524.376953125 494.166992188 558.497070312 c 128,-1,14
 466.063476562 592.6171875 466.063476562 592.6171875 426.341796875 592.6171875 c 2,15,-1
 265.41796875 592.6171875 l 2,0,1
213.336914062 297.25 m 2,16,17
 170.049804688 297.25 170.049804688 297.25 134.006835938 276.23046875 c 128,-1,18
 97.962890625 255.211914062 97.962890625 255.211914062 91.3671875 217.806640625 c 2,19,-1
 82.0283203125 164.844726562 l 2,20,21
 75.0244140625 125.123046875 75.0244140625 125.123046875 103.12890625 91.00390625 c 128,-1,22
 131.232421875 56.8837890625 131.232421875 56.8837890625 170.954101562 56.8837890625 c 2,23,-1
 331.877929688 56.8837890625 l 2,24,25
 371.599609375 56.8837890625 371.599609375 56.8837890625 411.735351562 91.00390625 c 128,-1,26
 451.87109375 125.123046875 451.87109375 125.123046875 458.875 164.844726562 c 2,27,-1
 468.213867188 217.806640625 l 2,28,29
 474.809570312 255.211914062 474.809570312 255.211914062 446.178710938 276.23046875 c 128,-1,30
 417.546875 297.25 417.546875 297.25 374.260742188 297.25 c 2,31,-1
 213.336914062 297.25 l 2,16,17
435.680664062 645.579101562 m 2,32,33
 456.856445312 645.579101562 456.856445312 645.579101562 481.561523438 635.223632812 c 128,-1,34
 506.265625 624.868164062 506.265625 624.868164062 528.803710938 605.99609375 c 128,-1,35
 551.341796875 587.124023438 551.341796875 587.124023438 563.146484375 554.953125 c 128,-1,36
 574.951171875 522.782226562 574.951171875 522.782226562 568.228515625 484.655273438 c 2,37,-1
 558.889648438 431.693359375 l 2,38,39
 551.856445312 391.803710938 551.856445312 391.803710938 512.59375 358.786132812 c 128,-1,40
 473.331054688 325.768554688 473.331054688 325.768554688 432.250976562 325.768554688 c 1,41,42
 473.163085938 325.768554688 473.163085938 325.768554688 500.702148438 291.819335938 c 128,-1,43
 528.240234375 257.870117188 528.240234375 257.870117188 521.17578125 217.806640625 c 2,44,-1
 511.836914062 164.844726562 l 2,45,46
 505.114257812 126.717773438 505.114257812 126.717773438 481.963867188 94.5478515625 c 128,-1,47
 458.815429688 62.376953125 458.815429688 62.376953125 429.62109375 43.50390625 c 128,-1,48
 400.427734375 24.6318359375 400.427734375 24.6318359375 372.072265625 14.2763671875 c 128,-1,49
 343.71484375 3.9208984375 343.71484375 3.9208984375 322.5390625 3.9208984375 c 2,50,-1
 161.615234375 3.9208984375 l 2,51,52
 140.439453125 3.9208984375 140.439453125 3.9208984375 115.734375 14.2763671875 c 128,-1,53
 91.0283203125 24.6318359375 91.0283203125 24.6318359375 68.4912109375 43.50390625 c 128,-1,54
 45.953125 62.376953125 45.953125 62.376953125 34.1484375 94.5478515625 c 128,-1,55
 22.34375 126.717773438 22.34375 126.717773438 29.06640625 164.844726562 c 2,56,-1
 38.4052734375 217.806640625 l 2,57,58
 45.4697265625 257.870117188 45.4697265625 257.870117188 84.98046875 291.819335938 c 128,-1,59
 124.490234375 325.768554688 124.490234375 325.768554688 165.40234375 325.768554688 c 1,60,61
 124.322265625 325.768554688 124.322265625 325.768554688 96.7041015625 358.786132812 c 128,-1,62
 69.0859375 391.803710938 69.0859375 391.803710938 76.119140625 431.693359375 c 2,63,-1
 85.4580078125 484.655273438 l 2,64,65
 92.1806640625 522.782226562 92.1806640625 522.782226562 115.331054688 554.953125 c 128,-1,66
 138.479492188 587.123046875 138.479492188 587.123046875 167.673828125 605.99609375 c 128,-1,67
 196.866210938 624.868164062 196.866210938 624.868164062 225.223632812 635.223632812 c 128,-1,68
 253.581054688 645.579101562 253.581054688 645.579101562 274.756835938 645.579101562 c 2,69,-1
 435.680664062 645.579101562 l 2,32,33
EndSplineSet
EndChar

StartChar: 9
Encoding: 57 57 12
Width: 545
VWidth: 1000
Flags: W
LayerCount: 2
Fore
SplineSet
378.927734375 323.71484375 m 2,0,1
 418.649414062 323.71484375 418.649414062 323.71484375 458.78515625 357.834960938 c 128,-1,2
 498.921875 391.954101562 498.921875 391.954101562 505.92578125 431.67578125 c 2,3,-1
 515.264648438 484.637695312 l 2,4,5
 522.268554688 524.359375 522.268554688 524.359375 494.1640625 558.479492188 c 128,-1,6
 466.061523438 592.599609375 466.061523438 592.599609375 426.338867188 592.599609375 c 2,7,-1
 265.415039062 592.599609375 l 2,8,9
 225.693359375 592.599609375 225.693359375 592.599609375 185.557617188 558.479492188 c 128,-1,10
 145.421875 524.359375 145.421875 524.359375 138.41796875 484.637695312 c 2,11,-1
 129.079101562 431.67578125 l 2,12,13
 122.075195312 391.954101562 122.075195312 391.954101562 150.178710938 357.834960938 c 128,-1,14
 178.282226562 323.71484375 178.282226562 323.71484375 218.00390625 323.71484375 c 2,15,-1
 378.927734375 323.71484375 l 2,0,1
208.665039062 270.751953125 m 2,16,17
 187.489257812 270.751953125 187.489257812 270.751953125 162.783203125 281.107421875 c 128,-1,18
 138.078125 291.462890625 138.078125 291.462890625 115.541015625 310.334960938 c 128,-1,19
 93.0029296875 329.208007812 93.0029296875 329.208007812 81.1982421875 361.37890625 c 128,-1,20
 69.3935546875 393.548828125 69.3935546875 393.548828125 76.1162109375 431.67578125 c 2,21,-1
 85.455078125 484.637695312 l 2,22,23
 92.177734375 522.764648438 92.177734375 522.764648438 115.328125 554.935546875 c 128,-1,24
 138.477539062 587.106445312 138.477539062 587.106445312 167.670898438 605.978515625 c 128,-1,25
 196.86328125 624.850585938 196.86328125 624.850585938 225.220703125 635.206054688 c 128,-1,26
 253.578125 645.561523438 253.578125 645.561523438 274.75390625 645.561523438 c 2,27,-1
 435.677734375 645.561523438 l 2,28,29
 456.853515625 645.561523438 456.853515625 645.561523438 481.55859375 635.206054688 c 128,-1,30
 506.263671875 624.850585938 506.263671875 624.850585938 528.801757812 605.978515625 c 128,-1,31
 551.33984375 587.10546875 551.33984375 587.10546875 563.14453125 554.935546875 c 128,-1,32
 574.94921875 522.764648438 574.94921875 522.764648438 568.2265625 484.637695312 c 2,33,-1
 521.173828125 217.790039062 l 2,34,35
 510.963867188 159.88671875 510.963867188 159.88671875 485.240234375 116.887695312 c 128,-1,36
 459.517578125 73.888671875 459.517578125 73.888671875 424.000976562 50.09375 c 128,-1,37
 388.483398438 26.2978515625 388.483398438 26.2978515625 350.038085938 15.1015625 c 128,-1,38
 311.592773438 3.904296875 311.592773438 3.904296875 269.57421875 3.904296875 c 2,39,-1
 0.6884765625 3.904296875 l 1,40,-1
 10.02734375 56.8662109375 l 1,41,-1
 278.913085938 56.8662109375 l 2,42,43
 358.356445312 56.8662109375 358.356445312 56.8662109375 406.280273438 97.6064453125 c 128,-1,44
 454.204101562 138.346679688 454.204101562 138.346679688 468.211914062 217.790039062 c 2,45,-1
 477.55078125 270.751953125 l 1,46,-1
 208.665039062 270.751953125 l 2,16,17
EndSplineSet
EndChar

StartChar: :
Encoding: 58 58 13
Width: 167
VWidth: 1000
Flags: W
LayerCount: 2
Fore
SplineSet
54.990234375 3.607421875 m 0,0,1
 32.5009765625 3.607421875 32.5009765625 3.607421875 19.3056640625 19.1318359375 c 128,-1,2
 6.1103515625 34.65625 6.1103515625 34.65625 9.865234375 55.94921875 c 0,3,4
 13.859375 78.59765625 13.859375 78.59765625 32.5078125 94.4501953125 c 128,-1,5
 51.15625 110.303710938 51.15625 110.303710938 73.8037109375 110.303710938 c 0,6,7
 95.0966796875 110.303710938 95.0966796875 110.303710938 107.8125 94.37109375 c 128,-1,8
 120.52734375 78.4384765625 120.52734375 78.4384765625 116.561523438 55.94921875 c 0,9,10
 112.834960938 34.8115234375 112.834960938 34.8115234375 94.4814453125 19.208984375 c 128,-1,11
 76.12890625 3.607421875 76.12890625 3.607421875 54.990234375 3.607421875 c 0,0,1
110.720703125 319.670898438 m 0,12,13
 88.2314453125 319.670898438 88.2314453125 319.670898438 75.0361328125 335.1953125 c 128,-1,14
 61.841796875 350.719726562 61.841796875 350.719726562 65.595703125 372.012695312 c 0,15,16
 69.5888671875 394.66015625 69.5888671875 394.66015625 88.23828125 410.513671875 c 128,-1,17
 106.88671875 426.3671875 106.88671875 426.3671875 129.534179688 426.3671875 c 0,18,19
 150.827148438 426.3671875 150.827148438 426.3671875 163.54296875 410.434570312 c 128,-1,20
 176.2578125 394.500976562 176.2578125 394.500976562 172.291992188 372.012695312 c 0,21,22
 168.564453125 350.874023438 168.564453125 350.874023438 150.211914062 335.272460938 c 128,-1,23
 131.859375 319.670898438 131.859375 319.670898438 110.720703125 319.670898438 c 0,12,13
EndSplineSet
EndChar

StartChar: ;
Encoding: 59 59 14
Width: 167
VWidth: 1000
Flags: W
LayerCount: 2
Fore
SplineSet
110.504882812 56.310546875 m 0,0,1
 98.560546875 -11.4326171875 98.560546875 -11.4326171875 81.271484375 -44.4951171875 c 128,-1,2
 63.982421875 -77.5576171875 63.982421875 -77.5576171875 35.234375 -89.9736328125 c 128,-1,3
 6.48828125 -102.389648438 6.48828125 -102.389648438 -48.0537109375 -102.389648438 c 1,4,5
 -44.1806640625 -80.4228515625 -44.1806640625 -80.4228515625 -34.4658203125 -71.091796875 c 128,-1,6
 -24.75 -61.7607421875 -24.75 -61.7607421875 -13.0029296875 -60.4521484375 c 128,-1,7
 -1.255859375 -59.1435546875 -1.255859375 -59.1435546875 10.69921875 -56.66015625 c 128,-1,8
 22.6533203125 -54.1767578125 22.6533203125 -54.1767578125 33.2666015625 -39.7529296875 c 128,-1,9
 43.87890625 -25.330078125 43.87890625 -25.330078125 49.0654296875 4.080078125 c 1,10,11
 26.46484375 4.080078125 26.46484375 4.080078125 14.2626953125 18.8955078125 c 128,-1,12
 2.0595703125 33.7109375 2.0595703125 33.7109375 6.0439453125 56.310546875 c 0,13,14
 9.826171875 77.7568359375 9.826171875 77.7568359375 27.52734375 93.1484375 c 128,-1,15
 45.2275390625 108.541015625 45.2275390625 108.541015625 67.484375 108.541015625 c 0,16,17
 88.5771484375 108.541015625 88.5771484375 108.541015625 101.401367188 92.97265625 c 128,-1,18
 114.224609375 77.4033203125 114.224609375 77.4033203125 110.504882812 56.310546875 c 0,0,1
104.676757812 319.471679688 m 0,19,20
 82.419921875 319.471679688 82.419921875 319.471679688 70.1484375 334.864257812 c 128,-1,21
 57.875 350.255859375 57.875 350.255859375 61.65625 371.702148438 c 0,22,23
 65.677734375 394.505859375 65.677734375 394.505859375 83.3603515625 410.223632812 c 128,-1,24
 101.04296875 425.94140625 101.04296875 425.94140625 123.450195312 425.94140625 c 0,25,26
 144.697265625 425.94140625 144.697265625 425.94140625 157.38671875 410.041992188 c 128,-1,27
 170.07421875 394.143554688 170.07421875 394.143554688 166.1171875 371.702148438 c 0,28,29
 162.3984375 350.609375 162.3984375 350.609375 144.083984375 335.040039062 c 128,-1,30
 125.76953125 319.471679688 125.76953125 319.471679688 104.676757812 319.471679688 c 0,19,20
EndSplineSet
EndChar

StartChar: =
Encoding: 61 61 15
Width: 435
VWidth: 1000
Flags: W
LayerCount: 2
Fore
SplineSet
81.974609375 164.536132812 m 2,0,1
 67.9697265625 164.536132812 67.9697265625 164.536132812 61.2021484375 165.020507812 c 128,-1,2
 54.43359375 165.504882812 54.43359375 165.504882812 45.921875 167.775390625 c 128,-1,3
 37.41015625 170.046875 37.41015625 170.046875 34.70703125 175.778320312 c 128,-1,4
 32.0048828125 181.510742188 32.0048828125 181.510742188 33.681640625 191.017578125 c 128,-1,5
 35.357421875 200.524414062 35.357421875 200.524414062 40.0810546875 206.255859375 c 128,-1,6
 44.8056640625 211.987304688 44.8056640625 211.987304688 54.1181640625 214.258789062 c 128,-1,7
 63.4306640625 216.529296875 63.4306640625 216.529296875 70.3701171875 217.013671875 c 128,-1,8
 77.30859375 217.498046875 77.30859375 217.498046875 91.3134765625 217.498046875 c 2,9,-1
 360.198242188 217.498046875 l 2,10,11
 374.203125 217.498046875 374.203125 217.498046875 380.971679688 217.013671875 c 128,-1,12
 387.739257812 216.529296875 387.739257812 216.529296875 396.250976562 214.258789062 c 128,-1,13
 404.76171875 211.987304688 404.76171875 211.987304688 407.46484375 206.255859375 c 128,-1,14
 410.166992188 200.524414062 410.166992188 200.524414062 408.491210938 191.017578125 c 128,-1,15
 406.814453125 181.510742188 406.814453125 181.510742188 402.090820312 175.778320312 c 128,-1,16
 397.366210938 170.046875 397.366210938 170.046875 388.0546875 167.775390625 c 128,-1,17
 378.7421875 165.504882812 378.7421875 165.504882812 371.803710938 165.020507812 c 128,-1,18
 364.864257812 164.536132812 364.864257812 164.536132812 350.859375 164.536132812 c 2,19,-1
 81.974609375 164.536132812 l 2,0,1
119.688476562 378.421875 m 2,20,21
 105.68359375 378.421875 105.68359375 378.421875 98.916015625 378.90625 c 128,-1,22
 92.1474609375 379.390625 92.1474609375 379.390625 83.6357421875 381.661132812 c 128,-1,23
 75.1240234375 383.932617188 75.1240234375 383.932617188 72.4208984375 389.6640625 c 128,-1,24
 69.71875 395.396484375 69.71875 395.396484375 71.3955078125 404.903320312 c 128,-1,25
 73.0712890625 414.41015625 73.0712890625 414.41015625 77.794921875 420.142578125 c 128,-1,26
 82.51953125 425.874023438 82.51953125 425.874023438 91.83203125 428.145507812 c 128,-1,27
 101.14453125 430.416015625 101.14453125 430.416015625 108.083984375 430.900390625 c 128,-1,28
 115.022460938 431.384765625 115.022460938 431.384765625 129.02734375 431.384765625 c 2,29,-1
 397.912109375 431.384765625 l 2,30,31
 411.916992188 431.384765625 411.916992188 431.384765625 418.685546875 430.900390625 c 128,-1,32
 425.453125 430.416015625 425.453125 430.416015625 433.96484375 428.145507812 c 128,-1,33
 442.475585938 425.874023438 442.475585938 425.874023438 445.178710938 420.142578125 c 128,-1,34
 447.880859375 414.41015625 447.880859375 414.41015625 446.205078125 404.903320312 c 128,-1,35
 444.528320312 395.396484375 444.528320312 395.396484375 439.8046875 389.6640625 c 128,-1,36
 435.080078125 383.932617188 435.080078125 383.932617188 425.768554688 381.661132812 c 128,-1,37
 416.456054688 379.390625 416.456054688 379.390625 409.517578125 378.90625 c 128,-1,38
 402.578125 378.421875 402.578125 378.421875 388.573242188 378.421875 c 2,39,-1
 119.688476562 378.421875 l 2,20,21
EndSplineSet
EndChar

StartChar: A
Encoding: 65 65 16
Width: 543
VWidth: 1000
Flags: W
LayerCount: 2
Fore
SplineSet
165.83984375 270.48046875 m 1,0,-1
 67.6103515625 83.0751953125 l 1,1,-1
 53.6025390625 3.6318359375 l 1,2,-1
 0.640625 3.6318359375 l 1,3,-1
 9.9794921875 56.59375 l 1,4,-1
 315.446289062 645.290039062 l 1,5,-1
 394.889648438 645.290039062 l 1,6,-1
 492.750976562 56.59375 l 1,7,-1
 483.412109375 3.6318359375 l 1,8,-1
 430.44921875 3.6318359375 l 1,9,-1
 444.45703125 83.0751953125 l 1,10,-1
 412.318359375 270.48046875 l 1,11,-1
 165.83984375 270.48046875 l 1,0,-1
193.870117188 325.479492188 m 1,12,-1
 403.681640625 325.479492188 l 1,13,-1
 359.069335938 592.327148438 l 1,14,-1
 332.587890625 592.327148438 l 1,15,-1
 193.870117188 325.479492188 l 1,12,-1
EndSplineSet
EndChar

StartChar: B
Encoding: 66 66 17
Width: 543
VWidth: 1000
Flags: W
LayerCount: 2
Fore
SplineSet
330.86328125 351.4921875 m 2,0,1
 413.260742188 351.4921875 413.260742188 351.4921875 456.768554688 375.569335938 c 128,-1,2
 500.278320312 399.645507812 500.278320312 399.645507812 510.46484375 457.416992188 c 0,3,4
 521.267578125 518.685546875 521.267578125 518.685546875 486.017578125 555.272460938 c 128,-1,5
 450.767578125 591.859375 450.767578125 591.859375 373.24609375 591.859375 c 2,6,-1
 157.323242188 591.859375 l 1,7,-1
 114.940429688 351.4921875 l 1,8,-1
 330.86328125 351.4921875 l 2,0,1
105.2421875 296.493164062 m 1,9,-1
 62.859375 56.1259765625 l 1,10,-1
 331.744140625 56.1259765625 l 2,11,12
 362.622070312 56.1259765625 362.622070312 56.1259765625 385.99609375 65.7734375 c 128,-1,13
 409.369140625 75.4208984375 409.369140625 75.4208984375 422.043945312 87.447265625 c 128,-1,14
 434.71875 99.4736328125 434.71875 99.4736328125 444.12109375 121.114257812 c 128,-1,15
 453.5234375 142.755859375 453.5234375 142.755859375 456.5 155.499023438 c 128,-1,16
 459.475585938 168.243164062 459.475585938 168.243164062 463.412109375 190.568359375 c 0,17,18
 470.38671875 230.125 470.38671875 230.125 442.203125 263.309570312 c 128,-1,19
 414.018554688 296.493164062 414.018554688 296.493164062 374.126953125 296.493164062 c 2,20,-1
 105.2421875 296.493164062 l 1,9,-1
382.584960938 644.822265625 m 2,21,22
 437.685546875 644.822265625 437.685546875 644.822265625 482.12109375 627.702148438 c 128,-1,23
 526.557617188 610.58203125 526.557617188 610.58203125 551.8671875 572.9921875 c 128,-1,24
 577.177734375 535.403320312 577.177734375 535.403320312 568.095703125 483.8984375 c 0,25,26
 561.229492188 444.955078125 561.229492188 444.955078125 552.828125 420.299804688 c 128,-1,27
 544.426757812 395.645507812 544.426757812 395.645507812 528.31640625 377.724609375 c 128,-1,28
 512.205078125 359.803710938 512.205078125 359.803710938 500.08984375 351.168945312 c 128,-1,29
 487.974609375 342.534179688 487.974609375 342.534179688 458.599609375 325.01171875 c 1,30,31
 477.896484375 309.508789062 477.896484375 309.508789062 485.01953125 303.087890625 c 128,-1,32
 492.143554688 296.66796875 492.143554688 296.66796875 502.877929688 282.646484375 c 128,-1,33
 513.611328125 268.624023438 513.611328125 268.624023438 515.560546875 254.8515625 c 128,-1,34
 517.5078125 241.079101562 517.5078125 241.079101562 517.373046875 218.276367188 c 128,-1,35
 517.23828125 195.473632812 517.23828125 195.473632812 511.705078125 164.087890625 c 0,36,37
 496.963867188 80.48828125 496.963867188 80.48828125 441.911132812 41.826171875 c 128,-1,38
 386.857421875 3.1640625 386.857421875 3.1640625 269.443359375 3.1640625 c 2,39,-1
 0.5576171875 3.1640625 l 1,40,-1
 113.69921875 644.822265625 l 1,41,-1
 382.584960938 644.822265625 l 2,21,22
EndSplineSet
EndChar

StartChar: C
Encoding: 67 67 18
Width: 543
VWidth: 1000
Flags: W
LayerCount: 2
Fore
SplineSet
38.37890625 217.66015625 m 2,0,-1
 76.0927734375 431.545898438 l 2,1,2
 83.501953125 473.564453125 83.501953125 473.564453125 101.129882812 510.03515625 c 128,-1,3
 118.758789062 546.506835938 118.758789062 546.506835938 148.076171875 577.828125 c 128,-1,4
 177.39453125 609.149414062 177.39453125 609.149414062 223.592773438 627.290039062 c 128,-1,5
 269.790039062 645.431640625 269.790039062 645.431640625 327.693359375 645.431640625 c 2,6,-1
 488.6171875 645.431640625 l 2,7,8
 528.338867188 645.431640625 528.338867188 645.431640625 540.666992188 638.811523438 c 128,-1,9
 552.995117188 632.19140625 552.995117188 632.19140625 587.240234375 592.469726562 c 1,10,-1
 318.35546875 592.469726562 l 2,11,12
 238.912109375 592.469726562 238.912109375 592.469726562 190.98828125 551.729492188 c 128,-1,13
 143.064453125 510.989257812 143.064453125 510.989257812 129.055664062 431.545898438 c 2,14,-1
 91.341796875 217.66015625 l 2,15,16
 77.333984375 138.216796875 77.333984375 138.216796875 110.890625 97.4765625 c 128,-1,17
 144.447265625 56.736328125 144.447265625 56.736328125 223.890625 56.736328125 c 2,18,-1
 492.775390625 56.736328125 l 1,19,20
 444.522460938 17.0146484375 444.522460938 17.0146484375 429.860351562 10.3935546875 c 128,-1,21
 415.197265625 3.7734375 415.197265625 3.7734375 375.475585938 3.7734375 c 2,22,-1
 214.551757812 3.7734375 l 2,23,24
 156.6484375 3.7734375 156.6484375 3.7734375 116.848632812 21.9150390625 c 128,-1,25
 77.048828125 40.056640625 77.048828125 40.056640625 58.775390625 71.3779296875 c 128,-1,26
 40.5029296875 102.69921875 40.5029296875 102.69921875 35.7373046875 139.170898438 c 128,-1,27
 30.970703125 175.641601562 30.970703125 175.641601562 38.37890625 217.66015625 c 2,0,-1
EndSplineSet
EndChar

StartChar: D
Encoding: 68 68 19
Width: 543
VWidth: 1000
Flags: W
LayerCount: 2
Fore
SplineSet
113.828125 645.549804688 m 1,0,-1
 0.6865234375 3.8916015625 l 1,1,-1
 269.571289062 3.8916015625 l 2,2,3
 390.264648438 3.8916015625 390.264648438 3.8916015625 445.077148438 50.48828125 c 128,-1,4
 499.890625 97.0849609375 499.890625 97.0849609375 521.171875 217.77734375 c 2,5,-1
 549.546875 378.701171875 l 2,6,7
 563.043945312 455.247070312 563.043945312 455.247070312 526.916992188 517.51171875 c 128,-1,8
 490.791015625 579.776367188 490.791015625 579.776367188 423.341796875 612.663085938 c 128,-1,9
 355.891601562 645.549804688 355.891601562 645.549804688 274.751953125 645.549804688 c 2,10,-1
 113.828125 645.549804688 l 1,0,-1
318.375 592.587890625 m 2,11,12
 399.17578125 592.587890625 399.17578125 592.587890625 454.8984375 525.451171875 c 128,-1,13
 510.622070312 458.314453125 510.622070312 458.314453125 496.583984375 378.701171875 c 2,14,-1
 463.5390625 191.296875 l 2,15,16
 453.033203125 131.713867188 453.033203125 131.713867188 409.00390625 94.2841796875 c 128,-1,17
 364.97265625 56.853515625 364.97265625 56.853515625 305.390625 56.853515625 c 2,18,-1
 62.986328125 56.853515625 l 1,19,-1
 157.451171875 592.587890625 l 1,20,-1
 318.375 592.587890625 l 2,11,12
EndSplineSet
EndChar

StartChar: E
Encoding: 69 69 20
Width: 543
VWidth: 1000
Flags: W
LayerCount: 2
Fore
SplineSet
0.69921875 3.962890625 m 1,0,-1
 113.840820312 645.62109375 l 1,1,-1
 596.612304688 645.62109375 l 1,2,-1
 587.2734375 592.658203125 l 1,3,-1
 157.463867188 592.658203125 l 1,4,-1
 115.080078125 352.291015625 l 1,5,-1
 544.889648438 352.291015625 l 1,6,-1
 535.192382812 297.291992188 l 1,7,-1
 105.3828125 297.291992188 l 1,8,-1
 62.9990234375 56.9248046875 l 1,9,-1
 492.80859375 56.9248046875 l 1,10,-1
 483.470703125 3.962890625 l 1,11,-1
 0.69921875 3.962890625 l 1,0,-1
EndSplineSet
EndChar

StartChar: F
Encoding: 70 70 21
Width: 543
VWidth: 1000
Flags: W
LayerCount: 2
Fore
SplineSet
0.6083984375 3.453125 m 1,0,-1
 113.750976562 645.111328125 l 1,1,-1
 596.522460938 645.111328125 l 1,2,-1
 587.18359375 592.1484375 l 1,3,-1
 157.374023438 592.1484375 l 1,4,-1
 114.990234375 351.78125 l 1,5,-1
 544.799804688 351.78125 l 1,6,-1
 535.102539062 296.782226562 l 1,7,-1
 105.29296875 296.782226562 l 1,8,-1
 53.5703125 3.453125 l 1,9,-1
 0.6083984375 3.453125 l 1,0,-1
EndSplineSet
EndChar

StartChar: G
Encoding: 71 71 22
Width: 543
VWidth: 1000
Flags: W
LayerCount: 2
Fore
SplineSet
38.36328125 217.571289062 m 2,0,-1
 76.078125 431.458007812 l 2,1,2
 83.486328125 473.475585938 83.486328125 473.475585938 101.114257812 509.947265625 c 128,-1,3
 118.743164062 546.41796875 118.743164062 546.41796875 148.060546875 577.739257812 c 128,-1,4
 177.37890625 609.060546875 177.37890625 609.060546875 223.577148438 627.202148438 c 128,-1,5
 269.775390625 645.34375 269.775390625 645.34375 327.678710938 645.34375 c 2,6,-1
 596.563476562 645.34375 l 1,7,-1
 587.224609375 592.381835938 l 1,8,-1
 318.33984375 592.381835938 l 2,9,10
 238.896484375 592.381835938 238.896484375 592.381835938 190.97265625 551.641601562 c 128,-1,11
 143.048828125 510.901367188 143.048828125 510.901367188 129.041015625 431.458007812 c 2,12,-1
 91.326171875 217.571289062 l 2,13,14
 77.318359375 138.127929688 77.318359375 138.127929688 110.875 97.3876953125 c 128,-1,15
 144.431640625 56.6474609375 144.431640625 56.6474609375 223.875 56.6474609375 c 2,16,-1
 331.8359375 56.6474609375 l 2,17,18
 371.557617188 56.6474609375 371.557617188 56.6474609375 411.694335938 90.767578125 c 128,-1,19
 451.831054688 124.887695312 451.831054688 124.887695312 458.834960938 164.609375 c 2,20,-1
 482.181640625 297.014648438 l 1,21,-1
 321.2578125 297.014648438 l 1,22,-1
 330.955078125 352.014648438 l 1,23,-1
 544.840820312 352.014648438 l 1,24,-1
 511.796875 164.609375 l 2,25,26
 483.420898438 3.685546875 483.420898438 3.685546875 322.497070312 3.685546875 c 2,27,-1
 214.536132812 3.685546875 l 2,28,29
 93.8427734375 3.685546875 93.8427734375 3.685546875 55.462890625 50.2822265625 c 128,-1,30
 17.08203125 96.87890625 17.08203125 96.87890625 38.36328125 217.571289062 c 2,0,-1
EndSplineSet
EndChar

StartChar: H
Encoding: 72 72 23
Width: 543
VWidth: 1000
Flags: W
LayerCount: 2
Fore
SplineSet
0.578125 3.2763671875 m 1,0,-1
 113.719726562 644.934570312 l 1,1,-1
 166.682617188 644.934570312 l 1,2,-1
 119.629882812 378.0859375 l 1,3,-1
 496.4765625 378.0859375 l 1,4,-1
 543.529296875 644.934570312 l 1,5,-1
 596.491210938 644.934570312 l 1,6,-1
 483.349609375 3.2763671875 l 1,7,-1
 430.387695312 3.2763671875 l 1,8,-1
 487.137695312 325.124023438 l 1,9,-1
 110.291015625 325.124023438 l 1,10,-1
 53.541015625 3.2763671875 l 1,11,-1
 0.578125 3.2763671875 l 1,0,-1
EndSplineSet
EndChar

StartChar: I
Encoding: 73 73 24
Width: 113
VWidth: 1000
Flags: W
LayerCount: 2
Fore
SplineSet
53.4970703125 3.0341796875 m 1,0,-1
 0.53515625 3.0341796875 l 1,1,-1
 113.676757812 644.69140625 l 1,2,-1
 166.638671875 644.69140625 l 1,3,-1
 53.4970703125 3.0341796875 l 1,0,-1
EndSplineSet
EndChar

StartChar: J
Encoding: 74 74 25
Width: 436
Flags: W
LayerCount: 2
Fore
SplineSet
1.294921875 7.341796875 m 1,0,-1
 10.6337890625 60.3046875 l 1,1,-1
 118.595703125 60.3046875 l 2,2,3
 198.0390625 60.3046875 198.0390625 60.3046875 277.112304688 127.525390625 c 128,-1,4
 356.186523438 194.747070312 356.186523438 194.747070312 370.1953125 274.190429688 c 2,5,-1
 426.9453125 596.038085938 l 1,6,-1
 318.983398438 596.038085938 l 1,7,-1
 328.322265625 649 l 1,8,-1
 489.24609375 649 l 1,9,-1
 423.157226562 274.190429688 l 2,10,11
 413.149414062 217.43359375 413.149414062 217.43359375 377.373046875 165.935546875 c 128,-1,12
 341.598632812 114.438476562 341.598632812 114.438476562 295.234375 80.712890625 c 128,-1,13
 248.87109375 46.9873046875 248.87109375 46.9873046875 199.23828125 27.1640625 c 128,-1,14
 149.60546875 7.341796875 149.60546875 7.341796875 109.256835938 7.341796875 c 2,15,-1
 1.294921875 7.341796875 l 1,0,-1
EndSplineSet
EndChar

StartChar: K
Encoding: 75 75 26
Width: 435
VWidth: 1000
Flags: W
LayerCount: 2
Fore
SplineSet
0.623046875 3.53125 m 1,0,-1
 113.764648438 645.189453125 l 1,1,-1
 166.727539062 645.189453125 l 1,2,-1
 109.9765625 323.341796875 l 1,3,-1
 488.575195312 645.189453125 l 1,4,-1
 478.876953125 590.190429688 l 1,5,-1
 164.975585938 323.341796875 l 1,6,-1
 217.9375 323.341796875 l 2,7,8
 272.936523438 323.341796875 272.936523438 323.341796875 317.4609375 306.290039062 c 128,-1,9
 361.984375 289.237304688 361.984375 289.237304688 387.353515625 252.124023438 c 128,-1,10
 412.72265625 215.009765625 412.72265625 215.009765625 403.80859375 164.455078125 c 2,11,-1
 375.43359375 3.53125 l 1,12,-1
 322.470703125 3.53125 l 1,13,-1
 350.845703125 164.455078125 l 2,14,15
 357.8203125 204.010742188 357.8203125 204.010742188 329.63671875 237.1953125 c 128,-1,16
 301.452148438 270.379882812 301.452148438 270.379882812 261.561523438 270.379882812 c 2,17,-1
 100.637695312 270.379882812 l 1,18,-1
 53.5859375 3.53125 l 1,19,-1
 0.623046875 3.53125 l 1,0,-1
EndSplineSet
EndChar

StartChar: L
Encoding: 76 76 27
Width: 435
VWidth: 1000
Flags: W
LayerCount: 2
Fore
SplineSet
0.6708984375 3.8037109375 m 1,0,-1
 113.8125 645.4609375 l 1,1,-1
 166.774414062 645.4609375 l 1,2,-1
 62.9716796875 56.765625 l 1,3,-1
 384.819335938 56.765625 l 1,4,-1
 375.48046875 3.8037109375 l 1,5,-1
 0.6708984375 3.8037109375 l 1,0,-1
EndSplineSet
EndChar

StartChar: M
Encoding: 77 77 28
Width: 543
VWidth: 1000
Flags: W
LayerCount: 2
Fore
SplineSet
53.615234375 3.703125 m 1,0,-1
 0.6533203125 3.703125 l 1,1,-1
 113.794921875 645.361328125 l 1,2,-1
 140.276367188 645.361328125 l 1,3,-1
 278.734375 217.588867188 l 1,4,-1
 570.084960938 645.361328125 l 1,5,-1
 596.56640625 645.361328125 l 1,6,-1
 483.424804688 3.703125 l 1,7,-1
 430.461914062 3.703125 l 1,8,-1
 515.227539062 484.4375 l 1,9,-1
 262.09375 111.6640625 l 1,10,-1
 138.380859375 484.4375 l 1,11,-1
 53.615234375 3.703125 l 1,0,-1
EndSplineSet
EndChar

StartChar: N
Encoding: 78 78 29
Width: 543
VWidth: 1000
Flags: W
LayerCount: 2
Fore
SplineSet
157.405273438 592.327148438 m 1,0,-1
 53.6025390625 3.6318359375 l 1,1,-1
 0.640625 3.6318359375 l 1,2,-1
 113.782226562 645.290039062 l 1,3,-1
 327.66796875 645.290039062 l 2,4,5
 385.14453125 645.290039062 385.14453125 645.290039062 432.38671875 618.6015625 c 128,-1,6
 479.62890625 591.9140625 479.62890625 591.9140625 506.393554688 551.4765625 c 128,-1,7
 533.158203125 511.0390625 533.158203125 511.0390625 544.889648438 464.934570312 c 128,-1,8
 556.622070312 418.830078125 556.622070312 418.830078125 549.500976562 378.44140625 c 2,9,-1
 483.412109375 3.6318359375 l 1,10,-1
 430.44921875 3.6318359375 l 1,11,-1
 496.538085938 378.44140625 l 2,12,13
 510.576171875 458.0546875 510.576171875 458.0546875 454.852539062 525.19140625 c 128,-1,14
 399.129882812 592.327148438 399.129882812 592.327148438 318.329101562 592.327148438 c 2,15,-1
 157.405273438 592.327148438 l 1,0,-1
EndSplineSet
EndChar

StartChar: O
Encoding: 79 79 30
Width: 543
VWidth: 1000
Flags: W
LayerCount: 2
Fore
SplineSet
558.86328125 431.5390625 m 2,0,1
 569.073242188 489.442382812 569.073242188 489.442382812 558.513671875 532.44140625 c 128,-1,2
 547.955078125 575.440429688 547.955078125 575.440429688 520.829101562 599.235351562 c 128,-1,3
 493.704101562 623.03125 493.704101562 623.03125 459.206054688 634.227539062 c 128,-1,4
 424.709960938 645.424804688 424.709960938 645.424804688 382.69140625 645.424804688 c 2,5,-1
 327.692382812 645.424804688 l 2,6,7
 285.673828125 645.424804688 285.673828125 645.424804688 247.228515625 634.227539062 c 128,-1,8
 208.783203125 623.03125 208.783203125 623.03125 173.265625 599.235351562 c 128,-1,9
 137.749023438 575.440429688 137.749023438 575.440429688 112.025390625 532.44140625 c 128,-1,10
 86.3017578125 489.442382812 86.3017578125 489.442382812 76.091796875 431.5390625 c 2,11,-1
 38.3779296875 217.65234375 l 2,12,13
 28.16796875 159.75 28.16796875 159.75 38.7275390625 116.750976562 c 128,-1,14
 49.2880859375 73.751953125 49.2880859375 73.751953125 76.4130859375 49.9560546875 c 128,-1,15
 103.5390625 26.1611328125 103.5390625 26.1611328125 138.036132812 14.9638671875 c 128,-1,16
 172.532226562 3.7666015625 172.532226562 3.7666015625 214.55078125 3.7666015625 c 2,17,-1
 269.549804688 3.7666015625 l 2,18,19
 311.568359375 3.7666015625 311.568359375 3.7666015625 350.013671875 14.9638671875 c 128,-1,20
 388.459960938 26.1611328125 388.459960938 26.1611328125 423.9765625 49.9560546875 c 128,-1,21
 459.494140625 73.751953125 459.494140625 73.751953125 485.215820312 116.750976562 c 128,-1,22
 510.939453125 159.75 510.939453125 159.75 521.149414062 217.65234375 c 2,23,-1
 558.86328125 431.5390625 l 2,0,1
468.1875 217.65234375 m 2,24,25
 454.1796875 138.208984375 454.1796875 138.208984375 406.255859375 97.4697265625 c 128,-1,26
 358.33203125 56.7294921875 358.33203125 56.7294921875 278.888671875 56.7294921875 c 2,27,-1
 223.889648438 56.7294921875 l 2,28,29
 144.446289062 56.7294921875 144.446289062 56.7294921875 110.889648438 97.4697265625 c 128,-1,30
 77.3330078125 138.208984375 77.3330078125 138.208984375 91.3408203125 217.65234375 c 2,31,-1
 129.0546875 431.5390625 l 2,32,33
 143.0625 510.982421875 143.0625 510.982421875 190.986328125 551.72265625 c 128,-1,34
 238.91015625 592.462890625 238.91015625 592.462890625 318.353515625 592.462890625 c 2,35,-1
 373.352539062 592.462890625 l 2,36,37
 452.795898438 592.462890625 452.795898438 592.462890625 486.352539062 551.72265625 c 128,-1,38
 519.909179688 510.982421875 519.909179688 510.982421875 505.901367188 431.5390625 c 2,39,-1
 468.1875 217.65234375 l 2,24,25
EndSplineSet
EndChar

StartChar: P
Encoding: 80 80 31
Width: 543
VWidth: 1000
Flags: W
LayerCount: 2
Fore
SplineSet
113.831054688 645.567382812 m 1,0,-1
 0.689453125 3.9091796875 l 1,1,-1
 53.65234375 3.9091796875 l 1,2,-1
 100.705078125 270.756835938 l 1,3,-1
 343.109375 270.756835938 l 2,4,5
 423.40625 270.756835938 423.40625 270.756835938 483.612304688 308.48828125 c 128,-1,6
 543.819335938 346.219726562 543.819335938 346.219726562 554.21875 405.200195312 c 2,7,-1
 563.557617188 458.162109375 l 2,8,9
 596.602539062 645.567382812 596.602539062 645.567382812 382.716796875 645.567382812 c 2,10,-1
 113.831054688 645.567382812 l 1,0,-1
399.859375 592.604492188 m 2,11,12
 457.208007812 592.604492188 457.208007812 592.604492188 489.908203125 559.4453125 c 128,-1,13
 522.608398438 526.287109375 522.608398438 526.287109375 515.265625 484.643554688 c 2,14,-1
 505.926757812 431.680664062 l 2,15,16
 495.780273438 374.139648438 495.780273438 374.139648438 451.69140625 349.948242188 c 128,-1,17
 407.602539062 325.756835938 407.602539062 325.756835938 326.325195312 325.756835938 c 2,18,-1
 110.40234375 325.756835938 l 1,19,-1
 157.455078125 592.604492188 l 1,20,-1
 399.859375 592.604492188 l 2,11,12
EndSplineSet
EndChar

StartChar: Q
Encoding: 81 81 32
Width: 543
VWidth: 1000
Flags: W
LayerCount: 2
Fore
SplineSet
358.681640625 70.59765625 m 1,0,-1
 261.744140625 190.760742188 l 1,1,2
 276.706054688 203.48046875 276.706054688 203.48046875 289.516601562 208.668945312 c 128,-1,3
 302.327148438 213.856445312 302.327148438 213.856445312 310.654296875 213.586914062 c 128,-1,4
 318.982421875 213.317382812 318.982421875 213.317382812 327.66015625 206.70703125 c 128,-1,5
 336.3359375 200.09765625 336.3359375 200.09765625 340.616210938 194.426757812 c 128,-1,6
 344.897460938 188.756835938 344.897460938 188.756835938 352.189453125 177.590820312 c 128,-1,7
 359.48046875 166.424804688 359.48046875 166.424804688 362.622070312 162.248046875 c 2,8,-1
 411.271484375 103.184570312 l 1,9,10
 452.5078125 140.692382812 452.5078125 140.692382812 466.004882812 217.23828125 c 2,11,-1
 503.712890625 431.087890625 l 2,12,13
 532.083007812 591.985351562 532.083007812 591.985351562 371.186523438 591.985351562 c 2,14,-1
 318.233398438 591.985351562 l 2,15,16
 238.802734375 591.985351562 238.802734375 591.985351562 190.88671875 551.251953125 c 128,-1,17
 142.971679688 510.518554688 142.971679688 510.518554688 128.965820312 431.087890625 c 2,18,-1
 91.2578125 217.23828125 l 2,19,20
 62.8876953125 56.3408203125 62.8876953125 56.3408203125 223.78515625 56.3408203125 c 2,21,-1
 276.73828125 56.3408203125 l 2,22,23
 327.655273438 56.3408203125 327.655273438 56.3408203125 358.681640625 70.59765625 c 1,0,-1
443.50390625 66.5244140625 m 1,24,-1
 516.95703125 -25.1259765625 l 1,25,26
 501.998046875 -37.8427734375 501.998046875 -37.8427734375 488.994140625 -42.98046875 c 128,-1,27
 475.990234375 -48.1181640625 475.990234375 -48.1181640625 467.556640625 -48.0048828125 c 128,-1,28
 459.125 -47.8916015625 459.125 -47.8916015625 449.983398438 -41.01953125 c 128,-1,29
 440.842773438 -34.146484375 440.842773438 -34.146484375 436.614257812 -28.8447265625 c 128,-1,30
 432.385742188 -23.54296875 432.385742188 -23.54296875 424.586914062 -11.90234375 c 128,-1,31
 416.787109375 -0.26171875 416.787109375 -0.26171875 414.041992188 3.3876953125 c 2,32,-1
 392.232421875 29.8642578125 l 1,33,34
 339.905273438 3.3876953125 339.905273438 3.3876953125 267.401367188 3.3876953125 c 2,35,-1
 214.448242188 3.3876953125 l 2,36,37
 172.436523438 3.3876953125 172.436523438 3.3876953125 137.9453125 14.5830078125 c 128,-1,38
 103.455078125 25.7783203125 103.455078125 25.7783203125 76.3330078125 49.5693359375 c 128,-1,39
 49.2119140625 73.3603515625 49.2119140625 73.3603515625 38.654296875 116.352539062 c 128,-1,40
 28.0966796875 159.344726562 28.0966796875 159.344726562 38.3046875 217.23828125 c 2,41,-1
 76.0126953125 431.087890625 l 2,42,43
 86.220703125 488.981445312 86.220703125 488.981445312 111.940429688 531.973632812 c 128,-1,44
 137.658203125 574.965820312 137.658203125 574.965820312 173.169921875 598.756835938 c 128,-1,45
 208.681640625 622.547851562 208.681640625 622.547851562 247.120117188 633.743164062 c 128,-1,46
 285.55859375 644.938476562 285.55859375 644.938476562 327.5703125 644.938476562 c 2,47,-1
 380.5234375 644.938476562 l 2,48,49
 423.255859375 644.938476562 423.255859375 644.938476562 457.880859375 633.7578125 c 128,-1,50
 492.504882812 622.577148438 492.504882812 622.577148438 519.40625 598.7421875 c 128,-1,51
 546.30859375 574.908203125 546.30859375 574.908203125 556.598632812 531.98828125 c 128,-1,52
 566.889648438 489.067382812 566.889648438 489.067382812 556.666992188 431.087890625 c 2,53,-1
 518.958984375 217.23828125 l 2,54,55
 501.578125 118.663085938 501.578125 118.663085938 443.50390625 66.5244140625 c 1,24,-1
EndSplineSet
EndChar

StartChar: R
Encoding: 82 82 33
Width: 543
VWidth: 1000
Flags: W
LayerCount: 2
Fore
SplineSet
119.697265625 378.475585938 m 1,0,-1
 157.411132812 592.362304688 l 1,1,-1
 373.333984375 592.362304688 l 2,2,3
 450.85546875 592.362304688 450.85546875 592.362304688 486.10546875 555.775390625 c 128,-1,4
 521.35546875 519.1875 521.35546875 519.1875 510.551757812 457.918945312 c 0,5,6
 507.6015625 441.18359375 507.6015625 441.18359375 501.662109375 428.518554688 c 128,-1,7
 495.723632812 415.853515625 495.723632812 415.853515625 489.317382812 407.413085938 c 128,-1,8
 482.912109375 398.97265625 482.912109375 398.97265625 470.83203125 393.313476562 c 128,-1,9
 458.751953125 387.654296875 458.751953125 387.654296875 449.896484375 384.71484375 c 128,-1,10
 441.040039062 381.775390625 441.040039062 381.775390625 423.3984375 380.342773438 c 128,-1,11
 405.7578125 378.91015625 405.7578125 378.91015625 395.028320312 378.692382812 c 128,-1,12
 384.30078125 378.475585938 384.30078125 378.475585938 362.1015625 378.475585938 c 2,13,-1
 119.697265625 378.475585938 l 1,0,-1
326.28125 325.513671875 m 2,14,15
 367.626953125 325.513671875 367.626953125 325.513671875 418.950195312 277.500976562 c 128,-1,16
 470.2734375 229.489257812 470.2734375 229.489257812 463.5 191.071289062 c 2,17,-1
 430.455078125 3.666015625 l 1,18,-1
 483.41796875 3.666015625 l 1,19,-1
 521.131835938 217.552734375 l 2,20,21
 524.327148438 235.67578125 524.327148438 235.67578125 516.81640625 251.678710938 c 128,-1,22
 509.3046875 267.680664062 509.3046875 267.680664062 498.029296875 277.57421875 c 128,-1,23
 486.75390625 287.46875 486.75390625 287.46875 474.59765625 300.693359375 c 128,-1,24
 462.44140625 313.918945312 462.44140625 313.918945312 458.6875 325.513671875 c 1,25,26
 482.11328125 325.513671875 482.11328125 325.513671875 517.189453125 359.818359375 c 128,-1,27
 552.266601562 394.124023438 552.266601562 394.124023438 558.845703125 431.438476562 c 2,28,-1
 568.184570312 484.400390625 l 2,29,30
 572.088867188 506.543945312 572.088867188 506.543945312 565.228515625 532.268554688 c 128,-1,31
 558.368164062 557.993164062 558.368164062 557.993164062 539.81640625 584.342773438 c 128,-1,32
 521.264648438 610.69140625 521.264648438 610.69140625 480.322265625 628.0078125 c 128,-1,33
 439.380859375 645.32421875 439.380859375 645.32421875 382.672851562 645.32421875 c 2,34,-1
 113.788085938 645.32421875 l 1,35,-1
 0.646484375 3.666015625 l 1,36,-1
 53.6083984375 3.666015625 l 1,37,-1
 110.358398438 325.513671875 l 1,38,-1
 326.28125 325.513671875 l 2,14,15
EndSplineSet
EndChar

StartChar: S
Encoding: 83 83 34
Width: 543
VWidth: 1000
Flags: W
LayerCount: 2
Fore
SplineSet
322.4453125 3.388671875 m 2,0,1
 359.8671875 3.388671875 359.8671875 3.388671875 394.978515625 20.88671875 c 128,-1,2
 430.090820312 38.384765625 430.090820312 38.384765625 453.733398438 64.1884765625 c 128,-1,3
 477.375976562 89.9921875 477.375976562 89.9921875 492.704101562 116.625976562 c 128,-1,4
 508.032226562 143.260742188 508.032226562 143.260742188 511.744140625 164.3125 c 2,5,-1
 521.083007812 217.275390625 l 2,6,7
 531.206054688 274.688476562 531.206054688 274.688476562 488.715820312 313.203125 c 128,-1,8
 446.223632812 351.717773438 446.223632812 351.717773438 383.865234375 351.717773438 c 2,9,-1
 249.422851562 351.717773438 l 2,10,11
 117.016601562 351.717773438 117.016601562 351.717773438 135.693359375 457.642578125 c 0,12,13
 146.23828125 517.443359375 146.23828125 517.443359375 189.336914062 554.763671875 c 128,-1,14
 232.436523438 592.084960938 232.436523438 592.084960938 291.805664062 592.084960938 c 2,15,-1
 587.171875 592.084960938 l 1,16,17
 567.936523438 613.881835938 567.936523438 613.881835938 558.828125 622.317382812 c 128,-1,18
 549.719726562 630.752929688 549.719726562 630.752929688 531.829101562 637.900390625 c 128,-1,19
 513.9375 645.046875 513.9375 645.046875 488.548828125 645.046875 c 2,20,-1
 274.663085938 645.046875 l 2,21,22
 237.241210938 645.046875 237.241210938 645.046875 202.12890625 627.548828125 c 128,-1,23
 167.017578125 610.05078125 167.017578125 610.05078125 143.375 584.247070312 c 128,-1,24
 119.732421875 558.444335938 119.732421875 558.444335938 104.404296875 531.809570312 c 128,-1,25
 89.076171875 505.174804688 89.076171875 505.174804688 85.3642578125 484.123046875 c 2,26,-1
 76.025390625 431.161132812 l 2,27,28
 65.8544921875 373.481445312 65.8544921875 373.481445312 107.786132812 335.100585938 c 128,-1,29
 149.717773438 296.71875 149.717773438 296.71875 213.243164062 296.71875 c 2,30,-1
 347.685546875 296.71875 l 2,31,32
 480.091796875 296.71875 480.091796875 296.71875 461.415039062 190.793945312 c 0,33,34
 450.870117188 130.993164062 450.870117188 130.993164062 407.770507812 93.6728515625 c 128,-1,35
 364.671875 56.3515625 364.671875 56.3515625 305.302734375 56.3515625 c 2,36,-1
 9.9365234375 56.3515625 l 1,37,38
 29.1728515625 34.5537109375 29.1728515625 34.5537109375 38.2802734375 26.1181640625 c 128,-1,39
 47.388671875 17.6826171875 47.388671875 17.6826171875 65.279296875 10.5361328125 c 128,-1,40
 83.171875 3.388671875 83.171875 3.388671875 108.559570312 3.388671875 c 2,41,-1
 322.4453125 3.388671875 l 2,0,1
EndSplineSet
EndChar

StartChar: T
Encoding: 84 84 35
Width: 543
VWidth: 1000
Flags: W
LayerCount: 2
Fore
SplineSet
269.484375 3.39453125 m 1,0,-1
 214.484375 3.39453125 l 1,1,-1
 318.287109375 592.08984375 l 1,2,-1
 104.401367188 592.08984375 l 1,3,-1
 113.740234375 645.051757812 l 1,4,-1
 596.51171875 645.051757812 l 1,5,-1
 587.172851562 592.08984375 l 1,6,-1
 373.287109375 592.08984375 l 1,7,-1
 269.484375 3.39453125 l 1,0,-1
EndSplineSet
EndChar

StartChar: U
Encoding: 85 85 36
Width: 543
VWidth: 1000
Flags: W
LayerCount: 2
Fore
SplineSet
166.677734375 644.91015625 m 1,0,-1
 113.71484375 644.91015625 l 1,1,-1
 38.287109375 217.137695312 l 2,2,3
 28.0771484375 159.234375 28.0771484375 159.234375 38.63671875 116.235351562 c 128,-1,4
 49.1962890625 73.236328125 49.1962890625 73.236328125 76.322265625 49.44140625 c 128,-1,5
 103.448242188 25.6455078125 103.448242188 25.6455078125 137.9453125 14.44921875 c 128,-1,6
 172.44140625 3.251953125 172.44140625 3.251953125 214.459960938 3.251953125 c 2,7,-1
 269.458984375 3.251953125 l 2,8,9
 311.4765625 3.251953125 311.4765625 3.251953125 349.922851562 14.44921875 c 128,-1,10
 388.368164062 25.6455078125 388.368164062 25.6455078125 423.884765625 49.44140625 c 128,-1,11
 459.40234375 73.236328125 459.40234375 73.236328125 485.125 116.235351562 c 128,-1,12
 510.848632812 159.234375 510.848632812 159.234375 521.05859375 217.137695312 c 2,13,-1
 596.486328125 644.91015625 l 1,14,-1
 543.524414062 644.91015625 l 1,15,-1
 468.096679688 217.137695312 l 2,16,17
 454.088867188 137.6953125 454.088867188 137.6953125 406.165039062 96.9541015625 c 128,-1,18
 358.241210938 56.2138671875 358.241210938 56.2138671875 278.797851562 56.2138671875 c 2,19,-1
 223.798828125 56.2138671875 l 2,20,21
 144.35546875 56.2138671875 144.35546875 56.2138671875 110.798828125 96.9541015625 c 128,-1,22
 77.2421875 137.694335938 77.2421875 137.694335938 91.25 217.137695312 c 2,23,-1
 166.677734375 644.91015625 l 1,0,-1
EndSplineSet
EndChar

StartChar: V
Encoding: 86 86 37
Width: 543
VWidth: 1000
Flags: W
LayerCount: 2
Fore
SplineSet
206.318359375 3.2890625 m 1,0,-1
 277.61328125 3.2890625 l 1,1,-1
 596.493164062 644.946289062 l 1,2,-1
 541.494140625 644.946289062 l 1,3,-1
 252.323242188 56.2509765625 l 1,4,-1
 168.720703125 644.946289062 l 1,5,-1
 113.721679688 644.946289062 l 1,6,-1
 206.318359375 3.2890625 l 1,0,-1
EndSplineSet
EndChar

StartChar: W
Encoding: 87 87 38
Width: 810
VWidth: 1000
Flags: W
LayerCount: 2
Fore
SplineSet
536.461914062 3.98046875 m 1,0,-1
 483.497070312 3.98046875 l 1,1,-1
 442.6015625 234.172851562 l 1,2,-1
 322.565429688 3.98046875 l 1,3,-1
 214.598632812 3.98046875 l 1,4,-1
 108.4609375 615.112304688 l 1,5,-1
 113.848632812 645.668945312 l 1,6,-1
 166.813476562 645.668945312 l 1,7,-1
 161.42578125 615.112304688 l 1,8,-1
 258.568359375 56.9443359375 l 1,9,-1
 297.2734375 56.9443359375 l 1,10,-1
 591.255859375 615.112304688 l 1,11,-1
 596.643554688 645.668945312 l 1,12,-1
 649.608398438 645.668945312 l 1,13,-1
 643.143554688 609.000976562 l 1,14,-1
 466.80078125 278.989257812 l 1,15,-1
 511.169921875 56.9443359375 l 1,16,-1
 805.151367188 615.112304688 l 1,17,-1
 810.5390625 645.668945312 l 1,18,-1
 863.50390625 645.668945312 l 1,19,-1
 858.116210938 615.112304688 l 1,20,-1
 536.461914062 3.98046875 l 1,0,-1
EndSplineSet
EndChar

StartChar: X
Encoding: 88 88 39
Width: 543
VWidth: 1000
Flags: W
LayerCount: 2
Fore
SplineSet
72.677734375 111.806640625 m 1,0,-1
 53.640625 3.8447265625 l 1,1,-1
 0.677734375 3.8447265625 l 1,2,-1
 19.71484375 111.806640625 l 1,3,-1
 275.984375 352.173828125 l 1,4,-1
 104.481445312 592.541015625 l 1,5,-1
 113.819335938 645.502929688 l 1,6,-1
 166.782226562 645.502929688 l 1,7,-1
 157.444335938 592.541015625 l 1,8,-1
 309.530273438 380.69140625 l 1,9,-1
 534.291015625 592.541015625 l 1,10,-1
 543.62890625 645.502929688 l 1,11,-1
 596.590820312 645.502929688 l 1,12,-1
 587.252929688 592.541015625 l 1,13,-1
 330.983398438 352.173828125 l 1,14,-1
 502.486328125 111.806640625 l 1,15,-1
 483.44921875 3.8447265625 l 1,16,-1
 430.487304688 3.8447265625 l 1,17,-1
 449.524414062 111.806640625 l 1,18,-1
 299.114257812 321.618164062 l 1,19,-1
 72.677734375 111.806640625 l 1,0,-1
EndSplineSet
EndChar

StartChar: Y
Encoding: 89 89 40
Width: 543
VWidth: 1000
Flags: W
LayerCount: 2
Fore
SplineSet
269.493164062 3.4482421875 m 1,0,-1
 214.494140625 3.4482421875 l 1,1,-1
 261.545898438 270.295898438 l 1,2,3
 219.713867188 270.295898438 219.713867188 270.295898438 185.111328125 281.770507812 c 128,-1,4
 150.5078125 293.245117188 150.5078125 293.245117188 123.514648438 317.258789062 c 128,-1,5
 96.5205078125 341.272460938 96.5205078125 341.272460938 85.904296875 384.130859375 c 128,-1,6
 75.2900390625 426.98828125 75.2900390625 426.98828125 85.3740234375 484.182617188 c 2,7,-1
 113.75 645.106445312 l 1,8,-1
 166.711914062 645.106445312 l 1,9,-1
 138.3359375 484.182617188 l 2,10,11
 110.3203125 325.295898438 110.3203125 325.295898438 271.244140625 325.295898438 c 2,12,-1
 326.243164062 325.295898438 l 2,13,14
 487.166992188 325.295898438 487.166992188 325.295898438 515.182617188 484.182617188 c 2,15,-1
 543.55859375 645.106445312 l 1,16,-1
 596.520507812 645.106445312 l 1,17,-1
 568.14453125 484.182617188 l 2,18,19
 550.494140625 384.08203125 550.494140625 384.08203125 482.779296875 327.189453125 c 128,-1,20
 415.064453125 270.295898438 415.064453125 270.295898438 316.544921875 270.295898438 c 1,21,-1
 269.493164062 3.4482421875 l 1,0,-1
EndSplineSet
EndChar

StartChar: Z
Encoding: 90 90 41
Width: 543
VWidth: 1000
Flags: W
LayerCount: 2
Fore
SplineSet
492.66015625 56.0791015625 m 1,0,-1
 483.321289062 3.1171875 l 1,1,-1
 0.5498046875 3.1171875 l 1,2,-1
 19.5859375 111.078125 l 1,3,-1
 524.463867188 536.813476562 l 1,4,-1
 534.162109375 591.8125 l 1,5,-1
 104.352539062 591.8125 l 1,6,-1
 113.69140625 644.775390625 l 1,7,-1
 596.462890625 644.775390625 l 1,8,-1
 577.42578125 536.813476562 l 1,9,-1
 72.5478515625 111.078125 l 1,10,-1
 62.8505859375 56.0791015625 l 1,11,-1
 492.66015625 56.0791015625 l 1,0,-1
EndSplineSet
EndChar

StartChar: a
Encoding: 97 97 42
Width: 377
VWidth: 1000
Flags: W
LayerCount: 2
Fore
SplineSet
161.49609375 267.046875 m 1,0,-1
 229.012695312 399.520507812 l 1,1,-1
 249.8125 267.046875 l 1,2,-1
 161.49609375 267.046875 l 1,0,-1
258.674804688 214.860351562 m 1,3,-1
 284.427734375 110.487304688 l 1,4,-1
 265.670898438 4.107421875 l 1,5,-1
 317.857421875 4.107421875 l 1,6,-1
 331.66015625 82.38671875 l 1,7,-1
 268.908203125 477.799804688 l 1,8,-1
 216.721679688 477.799804688 l 1,9,-1
 14.52734375 82.38671875 l 1,10,-1
 0.724609375 4.107421875 l 1,11,-1
 52.9111328125 4.107421875 l 1,12,-1
 71.66796875 110.487304688 l 1,13,-1
 134.229492188 214.860351562 l 1,14,-1
 258.674804688 214.860351562 l 1,3,-1
EndSplineSet
EndChar

StartChar: b
Encoding: 98 98 43
Width: 378
VWidth: 1000
Flags: W
LayerCount: 2
Fore
SplineSet
127.420898438 425.793945312 m 1,0,-1
 103.9921875 292.92578125 l 1,1,-1
 210.688476562 292.92578125 l 2,2,3
 317.384765625 292.92578125 317.384765625 292.92578125 326.614257812 345.267578125 c 0,4,5
 333.161132812 382.397460938 333.161132812 382.397460938 304.842773438 404.095703125 c 128,-1,6
 276.5234375 425.793945312 276.5234375 425.793945312 234.1171875 425.793945312 c 2,7,-1
 127.420898438 425.793945312 l 1,0,-1
94.763671875 240.584960938 m 1,8,-1
 62.1064453125 55.3759765625 l 1,9,-1
 168.802734375 55.3759765625 l 2,10,11
 275.499023438 55.3759765625 275.499023438 55.3759765625 287.212890625 121.809570312 c 0,12,13
 294.193359375 161.3984375 294.193359375 161.3984375 255.0546875 200.991210938 c 128,-1,14
 215.916992188 240.584960938 215.916992188 240.584960938 175.2890625 240.584960938 c 2,15,-1
 94.763671875 240.584960938 l 1,8,-1
0.53515625 3.0341796875 m 1,16,-1
 84.3076171875 478.134765625 l 1,17,-1
 191.00390625 478.134765625 l 2,18,19
 247.553710938 478.134765625 247.553710938 478.134765625 288.34765625 465.294921875 c 128,-1,20
 329.141601562 452.456054688 329.141601562 452.456054688 348.6796875 431.807617188 c 128,-1,21
 368.217773438 411.158203125 368.217773438 411.158203125 375.530273438 389.236328125 c 128,-1,22
 382.84375 367.314453125 382.84375 367.314453125 378.956054688 345.267578125 c 0,23,24
 372.399414062 308.08203125 372.399414062 308.08203125 337.36328125 287.418945312 c 128,-1,25
 302.328125 266.755859375 302.328125 266.755859375 258.416015625 266.755859375 c 1,26,27
 306.336914062 241.215820312 306.336914062 241.215820312 326.474609375 201.5234375 c 128,-1,28
 346.611328125 161.83203125 346.611328125 161.83203125 342.0390625 135.901367188 c 0,29,30
 339.625 122.211914062 339.625 122.211914062 336.716796875 111.397460938 c 128,-1,31
 333.80859375 100.583007812 333.80859375 100.583007812 321.461914062 78.462890625 c 128,-1,32
 309.115234375 56.341796875 309.115234375 56.341796875 291.3359375 41.6298828125 c 128,-1,33
 273.5546875 26.91796875 273.5546875 26.91796875 239.018554688 14.9765625 c 128,-1,34
 204.482421875 3.0341796875 204.482421875 3.0341796875 159.573242188 3.0341796875 c 2,35,-1
 0.53515625 3.0341796875 l 1,16,-1
EndSplineSet
EndChar

StartChar: c
Encoding: 99 99 44
Width: 378
VWidth: 1000
Flags: W
LayerCount: 2
Fore
SplineSet
393.284179688 426.526367188 m 1,0,-1
 234.24609375 426.526367188 l 2,1,2
 176.872070312 426.526367188 176.872070312 426.526367188 147.862304688 401.865234375 c 128,-1,3
 118.853515625 377.204101562 118.853515625 377.204101562 108.736328125 319.830078125 c 2,4,-1
 81.048828125 162.8046875 l 2,5,6
 70.2734375 101.697265625 70.2734375 101.697265625 89.75 78.90234375 c 128,-1,7
 109.2265625 56.1083984375 109.2265625 56.1083984375 168.931640625 56.1083984375 c 2,8,-1
 327.969726562 56.1083984375 l 1,9,10
 301.362304688 34.56640625 301.362304688 34.56640625 289.420898438 26.2294921875 c 128,-1,11
 277.479492188 17.892578125 277.479492188 17.892578125 257.306640625 10.830078125 c 128,-1,12
 237.134765625 3.7666015625 237.134765625 3.7666015625 212.043945312 3.7666015625 c 2,13,-1
 159.702148438 3.7666015625 l 2,14,15
 0.6640625 3.7666015625 0.6640625 3.7666015625 28.70703125 162.8046875 c 2,16,-1
 56.39453125 319.830078125 l 2,17,18
 84.4375 478.868164062 84.4375 478.868164062 243.475585938 478.868164062 c 2,19,-1
 295.817382812 478.868164062 l 2,20,21
 320.908203125 478.868164062 320.908203125 478.868164062 338.58984375 471.8046875 c 128,-1,22
 356.270507812 464.7421875 356.270507812 464.7421875 365.272460938 456.405273438 c 128,-1,23
 374.274414062 448.068359375 374.274414062 448.068359375 393.284179688 426.526367188 c 1,0,-1
EndSplineSet
EndChar

StartChar: d
Encoding: 100 100 45
Width: 377
VWidth: 1000
Flags: W
LayerCount: 2
Fore
SplineSet
0.703125 3.9892578125 m 1,0,-1
 84.228515625 477.682617188 l 1,1,-1
 190.609375 477.682617188 l 2,2,3
 247.6640625 477.682617188 247.6640625 477.682617188 286.880859375 459.806640625 c 128,-1,4
 326.098632812 441.931640625 326.098632812 441.931640625 344.103515625 411.068359375 c 128,-1,5
 362.108398438 380.206054688 362.108398438 380.206054688 366.8046875 344.268554688 c 128,-1,6
 371.500976562 308.331054688 371.500976562 308.331054688 364.200195312 266.928710938 c 2,7,-1
 345.796875 162.555664062 l 2,8,9
 317.836914062 3.9892578125 317.836914062 3.9892578125 159.270507812 3.9892578125 c 2,10,-1
 0.703125 3.9892578125 l 1,0,-1
127.212890625 425.49609375 m 1,11,-1
 62.091796875 56.17578125 l 1,12,-1
 168.47265625 56.17578125 l 2,13,14
 221.6875 56.17578125 221.6875 56.17578125 253.78515625 87.44921875 c 128,-1,15
 285.880859375 118.72265625 285.880859375 118.72265625 293.610351562 162.555664062 c 2,16,-1
 321.215820312 319.115234375 l 2,17,18
 328.1171875 358.254882812 328.1171875 358.254882812 300.42578125 391.875976562 c 128,-1,19
 272.733398438 425.49609375 272.733398438 425.49609375 233.59375 425.49609375 c 2,20,-1
 127.212890625 425.49609375 l 1,11,-1
EndSplineSet
EndChar

StartChar: e
Encoding: 101 101 46
Width: 377
VWidth: 1000
Flags: W
LayerCount: 2
Fore
SplineSet
62.0595703125 55.9921875 m 1,0,-1
 327.006835938 55.9921875 l 1,1,-1
 317.8046875 3.8056640625 l 1,2,-1
 0.6708984375 3.8056640625 l 1,3,-1
 84.1962890625 477.499023438 l 1,4,-1
 401.330078125 477.499023438 l 1,5,-1
 392.127929688 425.3125 l 1,6,-1
 127.180664062 425.3125 l 1,7,-1
 103.822265625 292.838867188 l 1,8,-1
 368.76953125 292.838867188 l 1,9,-1
 359.567382812 240.65234375 l 1,10,-1
 94.6201171875 240.65234375 l 1,11,-1
 62.0595703125 55.9921875 l 1,0,-1
EndSplineSet
EndChar

StartChar: f
Encoding: 102 102 47
Width: 377
VWidth: 1000
Flags: W
LayerCount: 2
Fore
SplineSet
94.6787109375 240.983398438 m 1,0,-1
 52.916015625 4.13671875 l 1,1,-1
 0.7294921875 4.13671875 l 1,2,-1
 84.25390625 477.829101562 l 1,3,-1
 401.387695312 477.829101562 l 1,4,-1
 392.186523438 425.642578125 l 1,5,-1
 127.239257812 425.642578125 l 1,6,-1
 103.879882812 293.169921875 l 1,7,-1
 368.827148438 293.169921875 l 1,8,-1
 359.625976562 240.983398438 l 1,9,-1
 94.6787109375 240.983398438 l 1,0,-1
EndSplineSet
EndChar

StartChar: g
Encoding: 103 103 48
Width: 378
VWidth: 1000
Flags: W
LayerCount: 2
Fore
SplineSet
294.3203125 162.119140625 m 2,0,-1
 308.1640625 240.630859375 l 1,1,-1
 201.467773438 240.630859375 l 1,2,-1
 210.697265625 292.97265625 l 1,3,-1
 369.735351562 292.97265625 l 1,4,-1
 327.848632812 55.421875 l 2,5,6
 324.387695312 35.7939453125 324.387695312 35.7939453125 305.147460938 19.4375 c 128,-1,7
 285.905273438 3.0810546875 285.905273438 3.0810546875 266.27734375 3.0810546875 c 2,8,-1
 159.581054688 3.0810546875 l 2,9,10
 0.54296875 3.0810546875 0.54296875 3.0810546875 28.5859375 162.119140625 c 2,11,-1
 56.2734375 319.143554688 l 2,12,13
 84.31640625 478.181640625 84.31640625 478.181640625 243.354492188 478.181640625 c 2,14,-1
 402.392578125 478.181640625 l 1,15,-1
 393.163085938 425.83984375 l 1,16,-1
 234.125 425.83984375 l 2,17,18
 174.127929688 425.83984375 174.127929688 425.83984375 146.598632812 402.135742188 c 128,-1,19
 119.068359375 378.432617188 119.068359375 378.432617188 108.614257812 319.143554688 c 2,20,-1
 80.9267578125 162.119140625 l 2,21,22
 70.47265625 102.830078125 70.47265625 102.830078125 89.6435546875 79.1259765625 c 128,-1,23
 108.814453125 55.421875 108.814453125 55.421875 168.810546875 55.421875 c 0,24,25
 248.833007812 55.421875 248.833007812 55.421875 264.521484375 68.7587890625 c 128,-1,26
 280.209960938 82.095703125 280.209960938 82.095703125 294.3203125 162.119140625 c 2,0,-1
EndSplineSet
EndChar

StartChar: h
Encoding: 104 104 49
Width: 377
VWidth: 1000
Flags: W
LayerCount: 2
Fore
SplineSet
94.6826171875 241.0078125 m 1,0,-1
 52.919921875 4.1611328125 l 1,1,-1
 0.7333984375 4.1611328125 l 1,2,-1
 84.2587890625 477.853515625 l 1,3,-1
 136.4453125 477.853515625 l 1,4,-1
 103.884765625 293.194335938 l 1,5,-1
 316.645507812 293.194335938 l 1,6,-1
 349.206054688 477.853515625 l 1,7,-1
 401.392578125 477.853515625 l 1,8,-1
 317.8671875 4.1611328125 l 1,9,-1
 265.680664062 4.1611328125 l 1,10,-1
 307.443359375 241.0078125 l 1,11,-1
 94.6826171875 241.0078125 l 1,0,-1
EndSplineSet
EndChar

StartChar: i
Encoding: 105 105 50
Width: 112
VWidth: 1000
Flags: W
LayerCount: 2
Fore
SplineSet
84.4697265625 479.051757812 m 1,0,-1
 136.811523438 479.051757812 l 1,1,-1
 53.0380859375 3.9501953125 l 1,2,-1
 0.6962890625 3.9501953125 l 1,3,-1
 84.4697265625 479.051757812 l 1,0,-1
EndSplineSet
EndChar

StartChar: j
Encoding: 106 106 51
Width: 378
VWidth: 1000
Flags: W
LayerCount: 2
Fore
SplineSet
350.146484375 478.725585938 m 1,0,-1
 402.48828125 478.725585938 l 1,1,-1
 346.7578125 162.663085938 l 2,2,3
 333.47265625 87.318359375 333.47265625 87.318359375 278.66796875 45.4716796875 c 128,-1,4
 223.86328125 3.625 223.86328125 3.625 159.677734375 3.625 c 128,-1,5
 95.4921875 3.625 95.4921875 3.625 55.443359375 45.4716796875 c 128,-1,6
 15.396484375 87.318359375 15.396484375 87.318359375 28.681640625 162.663085938 c 2,7,-1
 37.9111328125 215.004882812 l 1,8,-1
 90.2529296875 215.004882812 l 1,9,-1
 81.0234375 162.663085938 l 2,10,11
 71.197265625 106.936523438 71.197265625 106.936523438 97.5947265625 81.4521484375 c 128,-1,12
 123.9921875 55.966796875 123.9921875 55.966796875 168.90625 55.966796875 c 128,-1,13
 213.8203125 55.966796875 213.8203125 55.966796875 249.206054688 81.4521484375 c 128,-1,14
 284.58984375 106.936523438 284.58984375 106.936523438 294.416015625 162.663085938 c 2,15,-1
 350.146484375 478.725585938 l 1,0,-1
EndSplineSet
EndChar

StartChar: k
Encoding: 107 107 52
Width: 378
VWidth: 1000
Flags: W
LayerCount: 2
Fore
SplineSet
90.2724609375 215.1171875 m 1,0,-1
 53.0009765625 3.7373046875 l 1,1,-1
 0.6591796875 3.7373046875 l 1,2,-1
 84.4326171875 478.838867188 l 1,3,-1
 136.774414062 478.838867188 l 1,4,-1
 99.501953125 267.458984375 l 1,5,-1
 348.154296875 478.838867188 l 1,6,-1
 402.508789062 478.838867188 l 1,7,-1
 153.857421875 267.458984375 l 1,8,-1
 206.198242188 267.458984375 l 2,9,10
 365.236328125 267.458984375 365.236328125 267.458984375 337.548828125 110.43359375 c 2,11,-1
 318.735351562 3.7373046875 l 1,12,-1
 264.380859375 3.7373046875 l 1,13,-1
 292.423828125 162.775390625 l 2,14,15
 295.884765625 182.403320312 295.884765625 182.403320312 282.412109375 198.760742188 c 128,-1,16
 268.938476562 215.1171875 268.938476562 215.1171875 249.310546875 215.1171875 c 2,17,-1
 90.2724609375 215.1171875 l 1,0,-1
EndSplineSet
EndChar

StartChar: l
Encoding: 108 108 53
Width: 324
VWidth: 1000
Flags: W
LayerCount: 2
Fore
SplineSet
273.610351562 56.0791015625 m 1,0,-1
 264.380859375 3.7373046875 l 1,1,-1
 0.6591796875 3.7373046875 l 1,2,-1
 84.4326171875 478.838867188 l 1,3,-1
 136.774414062 478.838867188 l 1,4,-1
 62.23046875 56.0791015625 l 1,5,-1
 273.610351562 56.0791015625 l 1,0,-1
EndSplineSet
EndChar

StartChar: m
Encoding: 109 109 54
Width: 482
VWidth: 1000
Flags: W
LayerCount: 2
Fore
SplineSet
108.822265625 321.19921875 m 1,0,-1
 52.9033203125 4.0654296875 l 1,1,-1
 0.716796875 4.0654296875 l 1,2,-1
 84.2421875 477.758789062 l 1,3,-1
 239.4296875 162.631835938 l 1,4,-1
 505.748046875 477.758789062 l 1,5,-1
 422.22265625 4.0654296875 l 1,6,-1
 370.036132812 4.0654296875 l 1,7,-1
 425.955078125 321.19921875 l 1,8,-1
 225.626953125 84.3525390625 l 1,9,-1
 108.822265625 321.19921875 l 1,0,-1
EndSplineSet
EndChar

StartChar: n
Encoding: 110 110 55
Width: 377
VWidth: 1000
Flags: W
LayerCount: 2
Fore
SplineSet
127.243164062 425.666992188 m 1,0,-1
 52.919921875 4.1611328125 l 1,1,-1
 0.7333984375 4.1611328125 l 1,2,-1
 84.2587890625 477.853515625 l 1,3,-1
 190.638671875 477.853515625 l 2,4,5
 247.693359375 477.853515625 247.693359375 477.853515625 286.91015625 459.977539062 c 128,-1,6
 326.127929688 442.102539062 326.127929688 442.102539062 344.1328125 411.240234375 c 128,-1,7
 362.13671875 380.376953125 362.13671875 380.376953125 366.833984375 344.440429688 c 128,-1,8
 371.530273438 308.502929688 371.530273438 308.502929688 364.229492188 267.100585938 c 2,9,-1
 317.866210938 4.1611328125 l 1,10,-1
 265.6796875 4.1611328125 l 1,11,-1
 321.245117188 319.287109375 l 2,12,13
 328.146484375 358.426757812 328.146484375 358.426757812 300.455078125 392.046875 c 128,-1,14
 272.762695312 425.666992188 272.762695312 425.666992188 233.623046875 425.666992188 c 2,15,-1
 127.243164062 425.666992188 l 1,0,-1
EndSplineSet
EndChar

StartChar: o
Encoding: 111 111 56
Width: 430
VWidth: 1000
Flags: W
LayerCount: 2
Fore
SplineSet
56.3896484375 319.80078125 m 2,0,-1
 28.7021484375 162.775390625 l 2,1,2
 0.6591796875 3.7373046875 0.6591796875 3.7373046875 159.697265625 3.7373046875 c 2,3,-1
 212.0390625 3.7373046875 l 2,4,5
 371.077148438 3.7373046875 371.077148438 3.7373046875 399.120117188 162.775390625 c 2,6,-1
 426.807617188 319.80078125 l 2,7,8
 454.850585938 478.838867188 454.850585938 478.838867188 295.8125 478.838867188 c 2,9,-1
 243.470703125 478.838867188 l 2,10,11
 84.4326171875 478.838867188 84.4326171875 478.838867188 56.3896484375 319.80078125 c 2,0,-1
221.268554688 56.0791015625 m 2,12,-1
 168.926757812 56.0791015625 l 2,13,14
 110.041992188 56.0791015625 110.041992188 56.0791015625 90.3515625 79.9853515625 c 128,-1,15
 70.66015625 103.890625 70.66015625 103.890625 81.0439453125 162.775390625 c 2,16,-1
 108.731445312 319.80078125 l 2,17,18
 119.114257812 378.685546875 119.114257812 378.685546875 147.235351562 402.590820312 c 128,-1,19
 175.356445312 426.497070312 175.356445312 426.497070312 234.241210938 426.497070312 c 2,20,-1
 286.583007812 426.497070312 l 2,21,22
 343.5703125 426.497070312 343.5703125 426.497070312 363.977539062 401.27734375 c 128,-1,23
 384.385742188 376.057617188 384.385742188 376.057617188 374.465820312 319.80078125 c 2,24,-1
 346.778320312 162.775390625 l 2,25,26
 336.39453125 103.890625 336.39453125 103.890625 308.2734375 79.9853515625 c 128,-1,27
 280.153320312 56.0791015625 280.153320312 56.0791015625 221.268554688 56.0791015625 c 2,12,-1
EndSplineSet
EndChar

StartChar: p
Encoding: 112 112 57
Width: 378
VWidth: 1000
Flags: W
LayerCount: 2
Fore
SplineSet
90.1494140625 214.418945312 m 1,0,-1
 52.8779296875 3.0390625 l 1,1,-1
 0.5361328125 3.0390625 l 1,2,-1
 84.3095703125 478.140625 l 1,3,-1
 191.005859375 478.140625 l 2,4,5
 247.555664062 478.140625 247.555664062 478.140625 288.348632812 465.30078125 c 128,-1,6
 329.142578125 452.461914062 329.142578125 452.461914062 348.680664062 431.8125 c 128,-1,7
 368.21875 411.1640625 368.21875 411.1640625 375.53125 389.2421875 c 128,-1,8
 382.844726562 367.3203125 382.844726562 367.3203125 378.95703125 345.2734375 c 2,9,-1
 374.342773438 319.102539062 l 2,10,11
 366.827148438 276.481445312 366.827148438 276.481445312 319.583007812 245.450195312 c 128,-1,12
 272.337890625 214.418945312 272.337890625 214.418945312 196.845703125 214.418945312 c 2,13,-1
 90.1494140625 214.418945312 l 1,0,-1
127.421875 425.798828125 m 1,14,-1
 99.37890625 266.760742188 l 1,15,-1
 206.075195312 266.760742188 l 2,16,17
 227.092773438 266.760742188 227.092773438 266.760742188 237.990234375 267.23046875 c 128,-1,18
 248.887695312 267.701171875 248.887695312 267.701171875 266.368164062 271.07421875 c 128,-1,19
 283.849609375 274.447265625 283.849609375 274.447265625 293.444335938 281.048828125 c 128,-1,20
 303.040039062 287.650390625 303.040039062 287.650390625 312.072265625 300.8359375 c 128,-1,21
 321.104492188 314.021484375 321.104492188 314.021484375 324.485351562 333.194335938 c 0,22,23
 332.657226562 379.541015625 332.657226562 379.541015625 305.375 402.669921875 c 128,-1,24
 278.091796875 425.798828125 278.091796875 425.798828125 234.118164062 425.798828125 c 2,25,-1
 127.421875 425.798828125 l 1,14,-1
EndSplineSet
EndChar

StartChar: q
Encoding: 113 113 58
Width: 431
VWidth: 1000
Flags: W
LayerCount: 2
Fore
SplineSet
80.556640625 159.826171875 m 2,0,1
 70.21875 101.197265625 70.21875 101.197265625 89.9228515625 78.13671875 c 128,-1,2
 109.625976562 55.076171875 109.625976562 55.076171875 168.849609375 55.076171875 c 2,3,-1
 221.224609375 55.076171875 l 2,4,5
 253.455078125 55.076171875 253.455078125 55.076171875 268.267578125 59.10546875 c 1,6,-1
 196.2109375 141.696289062 l 1,7,8
 214.366210938 156.642578125 214.366210938 156.642578125 228.657226562 162.111328125 c 128,-1,9
 242.946289062 167.580078125 242.946289062 167.580078125 253.977539062 162.1328125 c 128,-1,10
 265.0078125 156.686523438 265.0078125 156.686523438 270.868164062 151.635742188 c 128,-1,11
 276.728515625 146.5859375 276.728515625 146.5859375 286.096679688 132.803710938 c 128,-1,12
 295.463867188 119.020507812 295.463867188 119.020507812 298.356445312 115.508789062 c 2,13,-1
 318.267578125 91.3359375 l 1,14,15
 336.346679688 113.897460938 336.346679688 113.897460938 344.4453125 159.826171875 c 2,16,-1
 372.505859375 318.96484375 l 2,17,18
 382.483398438 375.551757812 382.483398438 375.551757812 362.909179688 400.639648438 c 128,-1,19
 343.334960938 425.728515625 343.334960938 425.728515625 286.581054688 425.728515625 c 2,20,-1
 234.206054688 425.728515625 l 2,21,22
 175.28515625 425.728515625 175.28515625 425.728515625 147.145507812 401.807617188 c 128,-1,23
 119.006835938 377.885742188 119.006835938 377.885742188 108.6171875 318.96484375 c 2,24,-1
 80.556640625 159.826171875 l 2,0,1
56.2421875 318.96484375 m 2,25,26
 84.302734375 478.103515625 84.302734375 478.103515625 243.44140625 478.103515625 c 2,27,-1
 295.81640625 478.103515625 l 2,28,29
 454.955078125 478.103515625 454.955078125 478.103515625 426.89453125 318.96484375 c 2,30,-1
 398.833984375 159.826171875 l 2,31,32
 386.934570312 92.34375 386.934570312 92.34375 349.79296875 53.0615234375 c 1,33,-1
 418.53125 -25.5 l 1,34,35
 403.735351562 -38.078125 403.735351562 -38.078125 390.873046875 -43.1591796875 c 128,-1,36
 378.01171875 -48.2412109375 378.01171875 -48.2412109375 369.670898438 -48.12890625 c 128,-1,37
 361.330078125 -48.0166015625 361.330078125 -48.0166015625 352.288085938 -41.2197265625 c 128,-1,38
 343.248046875 -34.4228515625 343.248046875 -34.4228515625 339.06640625 -29.1787109375 c 128,-1,39
 334.883789062 -23.9345703125 334.883789062 -23.9345703125 327.168945312 -12.4208984375 c 128,-1,40
 319.455078125 -0.908203125 319.455078125 -0.908203125 316.740234375 2.701171875 c 2,41,-1
 301.451171875 18.81640625 l 1,42,43
 269.063476562 2.701171875 269.063476562 2.701171875 211.990234375 2.701171875 c 2,44,-1
 159.615234375 2.701171875 l 2,45,46
 0.4765625 2.701171875 0.4765625 2.701171875 28.181640625 159.826171875 c 2,47,-1
 56.2421875 318.96484375 l 2,25,26
EndSplineSet
EndChar

StartChar: r
Encoding: 114 114 59
Width: 378
VWidth: 1000
Flags: W
LayerCount: 2
Fore
SplineSet
90.14453125 214.389648438 m 1,0,-1
 52.8720703125 3.009765625 l 1,1,-1
 0.5302734375 3.009765625 l 1,2,-1
 84.3037109375 478.111328125 l 1,3,-1
 191 478.111328125 l 2,4,5
 247.043945312 478.111328125 247.043945312 478.111328125 287.505859375 460.998046875 c 128,-1,6
 327.967773438 443.884765625 327.967773438 443.884765625 346.301757812 417.84375 c 128,-1,7
 364.63671875 391.803710938 364.63671875 391.803710938 371.416015625 366.379882812 c 128,-1,8
 378.196289062 340.956054688 378.196289062 340.956054688 374.336914062 319.072265625 c 0,9,10
 366.805664062 276.360351562 366.805664062 276.360351562 340.2890625 245.375 c 128,-1,11
 313.770507812 214.389648438 313.770507812 214.389648438 275.353515625 214.389648438 c 1,12,13
 298.50390625 214.389648438 298.50390625 214.389648438 321.212890625 180.486328125 c 128,-1,14
 343.922851562 146.583007812 343.922851562 146.583007812 337.419921875 109.706054688 c 2,15,-1
 318.606445312 3.009765625 l 1,16,-1
 266.264648438 3.009765625 l 1,17,-1
 285.078125 109.706054688 l 2,18,19
 291.330078125 145.163085938 291.330078125 145.163085938 256.1640625 179.776367188 c 128,-1,20
 220.998046875 214.389648438 220.998046875 214.389648438 196.840820312 214.389648438 c 2,21,-1
 90.14453125 214.389648438 l 1,0,-1
206.0703125 266.731445312 m 2,22,23
 223.573242188 266.731445312 223.573242188 266.731445312 232.639648438 267.014648438 c 128,-1,24
 241.706054688 267.297851562 241.706054688 267.297851562 256.887695312 268.62890625 c 128,-1,25
 272.0703125 269.9609375 272.0703125 269.9609375 280.6484375 273.314453125 c 128,-1,26
 289.227539062 276.668945312 289.227539062 276.668945312 299.021484375 282.19921875 c 128,-1,27
 308.815429688 287.729492188 308.815429688 287.729492188 314.287109375 297.0625 c 128,-1,28
 319.759765625 306.39453125 319.759765625 306.39453125 321.995117188 319.072265625 c 0,29,30
 328.916992188 358.329101562 328.916992188 358.329101562 301.143554688 392.048828125 c 128,-1,31
 273.368164062 425.76953125 273.368164062 425.76953125 234.112304688 425.76953125 c 2,32,-1
 127.416015625 425.76953125 l 1,33,-1
 99.3740234375 266.731445312 l 1,34,-1
 206.0703125 266.731445312 l 2,22,23
EndSplineSet
EndChar

StartChar: s
Encoding: 115 115 60
Width: 377
VWidth: 1000
Flags: W
LayerCount: 2
Fore
SplineSet
9.8876953125 56.0751953125 m 1,0,-1
 168.455078125 56.0751953125 l 2,1,2
 212.0078125 56.0751953125 212.0078125 56.0751953125 247.092773438 82.5869140625 c 128,-1,3
 282.177734375 109.09765625 282.177734375 109.09765625 291.5859375 162.455078125 c 0,4,5
 296.046875 187.7578125 296.046875 187.7578125 291.05859375 204.150390625 c 128,-1,6
 286.069335938 220.54296875 286.069335938 220.54296875 271.525390625 228.11328125 c 128,-1,7
 256.981445312 235.68359375 256.981445312 235.68359375 241.114257812 238.209960938 c 128,-1,8
 225.24609375 240.735351562 225.24609375 240.735351562 201.015625 240.735351562 c 0,9,10
 42.4482421875 240.735351562 42.4482421875 240.735351562 56.2509765625 319.014648438 c 2,11,-1
 65.453125 371.201171875 l 2,12,13
 73.1396484375 414.795898438 73.1396484375 414.795898438 120.796875 446.189453125 c 128,-1,14
 168.456054688 477.58203125 168.456054688 477.58203125 242.778320312 477.58203125 c 2,15,-1
 294.96484375 477.58203125 l 2,16,17
 319.98046875 477.58203125 319.98046875 477.58203125 337.609375 470.540039062 c 128,-1,18
 355.239257812 463.498046875 355.239257812 463.498046875 364.213867188 455.185546875 c 128,-1,19
 373.188476562 446.873046875 373.188476562 446.873046875 392.142578125 425.395507812 c 1,20,-1
 233.576171875 425.395507812 l 2,21,22
 190.990234375 425.395507812 190.990234375 425.395507812 156.395507812 404.403320312 c 128,-1,23
 121.799804688 383.412109375 121.799804688 383.412109375 115.045898438 345.108398438 c 0,24,25
 112.381835938 329.999023438 112.381835938 329.999023438 117.456054688 319.4453125 c 128,-1,26
 122.530273438 308.891601562 122.530273438 308.891601562 130.276367188 303.779296875 c 128,-1,27
 138.0234375 298.666015625 138.0234375 298.666015625 153.189453125 296.030273438 c 128,-1,28
 168.35546875 293.39453125 168.35546875 293.39453125 177.54296875 293.09375 c 128,-1,29
 186.728515625 292.79296875 186.728515625 292.79296875 203.017578125 292.892578125 c 0,30,31
 207.915039062 292.921875 207.915039062 292.921875 210.217773438 292.921875 c 0,32,33
 291.408203125 292.921875 291.408203125 292.921875 325.912109375 269.198242188 c 128,-1,34
 360.416992188 245.473632812 360.416992188 245.473632812 350.379882812 188.548828125 c 2,35,-1
 341.177734375 136.362304688 l 2,36,37
 330.333984375 74.859375 330.333984375 74.859375 283.19140625 39.3740234375 c 128,-1,38
 236.048828125 3.888671875 236.048828125 3.888671875 159.252929688 3.888671875 c 2,39,-1
 107.06640625 3.888671875 l 2,40,41
 82.05078125 3.888671875 82.05078125 3.888671875 64.421875 10.9306640625 c 128,-1,42
 46.7919921875 17.97265625 46.7919921875 17.97265625 37.8173828125 26.28515625 c 128,-1,43
 28.8427734375 34.5966796875 28.8427734375 34.5966796875 9.8876953125 56.0751953125 c 1,0,-1
EndSplineSet
EndChar

StartChar: t
Encoding: 116 116 61
Width: 378
VWidth: 1000
Flags: W
LayerCount: 2
Fore
SplineSet
185.751953125 3.0810546875 m 1,0,-1
 133.41015625 3.0810546875 l 1,1,-1
 207.954101562 425.83984375 l 1,2,-1
 75.0869140625 425.83984375 l 1,3,-1
 84.31640625 478.181640625 l 1,4,-1
 402.392578125 478.181640625 l 1,5,-1
 393.163085938 425.83984375 l 1,6,-1
 260.295898438 425.83984375 l 1,7,-1
 185.751953125 3.0810546875 l 1,0,-1
EndSplineSet
EndChar

StartChar: u
Encoding: 117 117 62
Width: 430
VWidth: 1000
Flags: W
LayerCount: 2
Fore
SplineSet
136.755859375 478.73828125 m 1,0,-1
 84.4140625 478.73828125 l 1,1,-1
 28.68359375 162.674804688 l 2,2,3
 0.6416015625 3.63671875 0.6416015625 3.63671875 159.6796875 3.63671875 c 2,4,-1
 212.021484375 3.63671875 l 2,5,6
 371.059570312 3.63671875 371.059570312 3.63671875 399.1015625 162.674804688 c 2,7,-1
 454.83203125 478.73828125 l 1,8,-1
 402.490234375 478.73828125 l 1,9,-1
 346.759765625 162.674804688 l 2,10,11
 336.376953125 103.790039062 336.376953125 103.790039062 308.255859375 79.884765625 c 128,-1,12
 280.134765625 55.978515625 280.134765625 55.978515625 221.25 55.978515625 c 2,13,-1
 168.908203125 55.978515625 l 2,14,15
 110.024414062 55.978515625 110.024414062 55.978515625 90.333984375 79.884765625 c 128,-1,16
 70.642578125 103.790039062 70.642578125 103.790039062 81.025390625 162.674804688 c 2,17,-1
 136.755859375 478.73828125 l 1,0,-1
EndSplineSet
EndChar

StartChar: v
Encoding: 118 118 63
Width: 429
VWidth: 1000
Flags: W
LayerCount: 2
Fore
SplineSet
211.5 4.232421875 m 1,0,-1
 159.313476562 4.232421875 l 1,1,-1
 75.0693359375 425.73828125 l 1,2,-1
 84.271484375 477.924804688 l 1,3,-1
 136.458007812 477.924804688 l 1,4,-1
 124.0703125 407.673828125 l 1,5,-1
 194.608398438 56.4189453125 l 1,6,-1
 389.017578125 407.673828125 l 1,7,-1
 401.405273438 477.924804688 l 1,8,-1
 453.591796875 477.924804688 l 1,9,-1
 444.389648438 425.73828125 l 1,10,-1
 211.5 4.232421875 l 1,0,-1
EndSplineSet
EndChar

StartChar: w
Encoding: 119 119 64
Width: 642
VWidth: 1000
Flags: W
LayerCount: 2
Fore
SplineSet
365.404296875 257.34375 m 1,0,-1
 435.952148438 372.0703125 l 1,1,-1
 454.76171875 478.74609375 l 1,2,-1
 402.430664062 478.74609375 l 1,3,-1
 382.201171875 364.01953125 l 1,4,-1
 195.059570312 56.068359375 l 1,5,-1
 116.517578125 364.01953125 l 1,6,-1
 136.747070312 478.74609375 l 1,7,-1
 84.416015625 478.74609375 l 1,8,-1
 65.6064453125 372.0703125 l 1,9,-1
 159.666015625 3.7373046875 l 1,10,-1
 211.998046875 3.7373046875 l 1,11,-1
 325.158203125 188.91015625 l 1,12,-1
 371.004882812 3.7373046875 l 1,13,-1
 423.336914062 3.7373046875 l 1,14,-1
 647.291015625 372.0703125 l 1,15,-1
 666.100585938 478.74609375 l 1,16,-1
 613.76953125 478.74609375 l 1,17,-1
 593.540039062 364.01953125 l 1,18,-1
 406.3984375 56.068359375 l 1,19,-1
 365.404296875 257.34375 l 1,0,-1
EndSplineSet
EndChar

StartChar: x
Encoding: 120 120 65
Width: 429
VWidth: 1000
Flags: W
LayerCount: 2
Fore
SplineSet
66.6708984375 82.14453125 m 1,0,-1
 52.8681640625 3.8642578125 l 1,1,-1
 0.681640625 3.8642578125 l 1,2,-1
 14.484375 82.14453125 l 1,3,-1
 201.010742188 240.7109375 l 1,4,-1
 70.4033203125 399.27734375 l 1,5,-1
 84.2060546875 477.557617188 l 1,6,-1
 136.392578125 477.557617188 l 1,7,-1
 122.58984375 399.27734375 l 1,8,-1
 231.705078125 266.8046875 l 1,9,-1
 387.537109375 399.27734375 l 1,10,-1
 401.33984375 477.557617188 l 1,11,-1
 453.526367188 477.557617188 l 1,12,-1
 439.723632812 399.27734375 l 1,13,-1
 253.197265625 240.7109375 l 1,14,-1
 383.8046875 82.14453125 l 1,15,-1
 370.001953125 3.8642578125 l 1,16,-1
 317.815429688 3.8642578125 l 1,17,-1
 331.618164062 82.14453125 l 1,18,-1
 222.502929688 214.618164062 l 1,19,-1
 66.6708984375 82.14453125 l 1,0,-1
EndSplineSet
EndChar

StartChar: y
Encoding: 121 121 66
Width: 430
VWidth: 1000
Flags: W
LayerCount: 2
Fore
SplineSet
211.913085938 3.021484375 m 1,0,-1
 159.571289062 3.021484375 l 1,1,-1
 196.842773438 214.401367188 l 1,2,3
 37.8046875 214.401367188 37.8046875 214.401367188 65.4921875 371.426757812 c 2,4,-1
 84.3056640625 478.123046875 l 1,5,-1
 136.647460938 478.123046875 l 1,6,-1
 117.833984375 371.426757812 l 2,7,8
 107.895507812 315.05859375 107.895507812 315.05859375 127.79296875 290.901367188 c 128,-1,9
 147.69140625 266.743164062 147.69140625 266.743164062 206.072265625 266.743164062 c 2,10,-1
 258.4140625 266.743164062 l 2,11,12
 318.3046875 266.743164062 318.3046875 266.743164062 345.833984375 290.145507812 c 128,-1,13
 373.36328125 313.548828125 373.36328125 313.548828125 383.568359375 371.426757812 c 2,14,-1
 402.381835938 478.123046875 l 1,15,-1
 454.723632812 478.123046875 l 1,16,-1
 435.91015625 371.426757812 l 2,17,18
 422.375 294.6640625 422.375 294.6640625 374.403320312 254.533203125 c 128,-1,19
 326.431640625 214.401367188 326.431640625 214.401367188 249.184570312 214.401367188 c 1,20,-1
 211.913085938 3.021484375 l 1,0,-1
EndSplineSet
EndChar

StartChar: z
Encoding: 122 122 67
Width: 378
VWidth: 1000
Flags: W
LayerCount: 2
Fore
SplineSet
327.934570312 55.9072265625 m 1,0,-1
 318.705078125 3.5654296875 l 1,1,-1
 0.62890625 3.5654296875 l 1,2,-1
 19.4423828125 110.262695312 l 1,3,-1
 331.323242188 371.970703125 l 1,4,-1
 340.907226562 426.325195312 l 1,5,-1
 75.1728515625 426.325195312 l 1,6,-1
 84.40234375 478.666992188 l 1,7,-1
 402.478515625 478.666992188 l 1,8,-1
 383.665039062 371.970703125 l 1,9,-1
 71.7841796875 110.262695312 l 1,10,-1
 62.2001953125 55.9072265625 l 1,11,-1
 327.934570312 55.9072265625 l 1,0,-1
EndSplineSet
EndChar

